<?xml version="1.0" encoding="utf-8"?>
<!-- Generator: Adobe Illustrator 22.0.1, SVG Export Plug-In . SVG Version: 6.00 Build 0)  -->
<svg version="1.1" id="Layer_1" xmlns="http://www.w3.org/2000/svg" xmlns:xlink="http://www.w3.org/1999/xlink" x="0px" y="0px"
	 viewBox="0 0 180 65" style="enable-background:new 0 0 180 65;" xml:space="preserve">
<style type="text/css">
	.st0{fill:#6D6E71;}
	.st1{fill-rule:evenodd;clip-rule:evenodd;fill:#0054A5;}
	.st2{fill-rule:evenodd;clip-rule:evenodd;fill:#626366;}
	.st3{fill-rule:evenodd;clip-rule:evenodd;fill:#50B748;}
	.st4{fill-rule:evenodd;clip-rule:evenodd;fill:#808184;}
	.st5{fill-rule:evenodd;clip-rule:evenodd;fill:#FFFFFF;}
	.st6{fill-rule:evenodd;clip-rule:evenodd;fill:#231F20;}
	.st7{fill-rule:evenodd;clip-rule:evenodd;fill:#8DD7F7;}
	.st8{fill-rule:evenodd;clip-rule:evenodd;fill:#0094D9;}
	.st9{fill-rule:evenodd;clip-rule:evenodd;fill:#E6E7E8;}
	.st10{fill-rule:evenodd;clip-rule:evenodd;fill:#D0D2D3;}
	.st11{fill-rule:evenodd;clip-rule:evenodd;fill:#EC1C24;}
</style>
<g>
	<path class="st0" d="M3.5,61.7l3.4-7.9H7h0.1l3.4,7.9c0.2,0.5,0.4,0.8,0.6,1c0.1,0.1,0.4,0.2,0.7,0.2v0.3H10H8.2v-0.3
		c0.5,0,0.9-0.1,1-0.2c0.1-0.1,0.1-0.4-0.1-1l-0.7-1.5H4.7l-0.4,1C4,61.9,3.9,62.3,4,62.6c0.1,0.2,0.4,0.3,1,0.3v0.3H3.6H2.2v-0.3
		c0.3,0,0.5-0.1,0.7-0.2C3,62.4,3.2,62.1,3.5,61.7z M5,59.6h3.1l-1.6-3.8l0,0L5,59.6z"/>
	<path class="st0" d="M16.8,61.8v-6.5c0-0.4-0.1-0.7-0.2-0.7c-0.1-0.1-0.4-0.1-0.9-0.1v-0.2c0.4-0.1,0.8-0.2,1.1-0.3
		c0.3-0.1,0.7-0.2,1.1-0.3l0.1,0.1v8.2c0,0.4,0.1,0.7,0.2,0.9c0.1,0.1,0.4,0.2,0.8,0.2v0.2h-1.6h-1.6V63c0.4,0,0.7-0.1,0.9-0.2
		C16.7,62.6,16.8,62.3,16.8,61.8z"/>
	<path class="st0" d="M21.3,63.2c-0.4,0-0.8-0.1-1-0.4c-0.3-0.3-0.4-0.6-0.4-1s0.1-0.8,0.4-1.2c0.3-0.4,0.8-0.7,1.6-1l1.4-0.6v-0.7
		c0-0.4-0.1-0.7-0.2-1c-0.1-0.2-0.4-0.3-0.8-0.3c-0.4,0-0.6,0.1-0.8,0.3c-0.1,0.2-0.1,0.4-0.1,0.7s0.1,0.4-0.1,0.6
		c-0.1,0.1-0.3,0.2-0.5,0.2c-0.1,0-0.3-0.1-0.4-0.1c-0.1-0.1-0.1-0.2-0.1-0.4c0-0.4,0.2-0.8,0.7-1.1s1-0.4,1.6-0.4
		c0.7,0,1.2,0.1,1.6,0.4s0.5,0.8,0.5,1.4v3.2c0,0.2,0,0.4,0.1,0.5c0.1,0.1,0.1,0.1,0.3,0.1c0.1,0,0.2,0,0.3-0.1
		c0.1-0.1,0.2-0.1,0.3-0.2v0.4c-0.1,0.2-0.4,0.4-0.6,0.5c-0.2,0.1-0.4,0.2-0.7,0.2c-0.3,0-0.5-0.1-0.7-0.3c-0.1-0.1-0.2-0.4-0.2-0.7
		c-0.1,0.1-0.4,0.3-0.6,0.4C22.3,63.1,21.8,63.2,21.3,63.2z M23.3,61.4v-2.1l-0.7,0.3c-0.4,0.1-0.8,0.4-1.1,0.7
		c-0.2,0.3-0.4,0.6-0.4,1c0,0.3,0,0.3,0,0c0,0.3,0.1,0.6,0.2,0.8c0.1,0.2,0.4,0.3,0.7,0.3c0.4,0,0.7-0.1,1-0.4
		c0.1-0.1,0.2-0.1,0.2-0.2C23.3,61.7,23.3,61.6,23.3,61.4z"/>
	<path class="st0" d="M26.6,61.8v-3.4c0-0.4-0.1-0.6-0.1-0.7c-0.1-0.1-0.4-0.1-0.7-0.1v-0.2c0.4-0.1,0.7-0.2,1-0.3
		c0.3-0.1,0.6-0.2,1-0.4l0.1,0.1v1.1c0.4-0.3,0.7-0.6,1-0.7c0.4-0.2,0.7-0.4,1-0.4c0.6,0,1,0.1,1.3,0.5s0.4,0.9,0.4,1.6v2.9
		c0,0.4,0.1,0.7,0.1,0.9c0.1,0.1,0.3,0.2,0.7,0.2v0.2h-1.4h-1.4v-0.2c0.4,0,0.6-0.1,0.7-0.2c0.1-0.1,0.1-0.4,0.1-0.9v-3
		c0-0.4-0.1-0.8-0.2-1s-0.4-0.3-0.8-0.3c-0.2,0-0.4,0.1-0.6,0.2c-0.2,0.1-0.4,0.3-0.7,0.6v3.5c0,0.4,0.1,0.7,0.1,0.9
		c0.1,0.1,0.4,0.2,0.7,0.2v0.2h-1.4H26v-0.2c0.4,0,0.6-0.1,0.7-0.2C26.5,62.6,26.6,62.3,26.6,61.8z"/>
	<path class="st0" d="M35.4,63.2c-0.7,0-1.4-0.3-1.9-0.8c-0.4-0.5-0.7-1.3-0.7-2.2s0.3-1.7,0.8-2.5c0.6-0.7,1.3-1,2-1
		c0.4,0,1,0.2,1.5,0.6v-1.9c0-0.4-0.1-0.7-0.1-0.7c-0.1-0.1-0.4-0.1-0.7-0.1v-0.2c0.4-0.1,0.7-0.2,1-0.3s0.6-0.2,1-0.3l0.1,0.1v7.9
		c0,0.3,0.1,0.5,0.1,0.7c0.1,0.1,0.4,0.1,0.7,0.1v0.2l-1,0.4l-1,0.4l-0.1-0.1v-0.9C36.7,62.9,36.1,63.2,35.4,63.2z M35.7,57.1
		c-0.5,0-0.9,0.2-1.2,0.7C34.2,58.4,34,59,34,59.7c0,0.8,0.1,1.5,0.5,2c0.4,0.5,0.8,0.7,1.3,0.7c0.4,0,0.7-0.1,0.9-0.3
		C37,62.1,37,62,37,61.9c0.1-0.1,0.1-0.3,0.1-0.5v-2.6c0-0.2,0-0.4-0.1-0.6s-0.1-0.4-0.2-0.4C36.6,57.3,36.2,57.1,35.7,57.1z"/>
	<path class="st0" d="M40.6,61.8v-3.4c0-0.4-0.1-0.7-0.1-0.7c-0.1-0.1-0.4-0.1-0.7,0v-0.2c0.4-0.1,0.7-0.2,1-0.3
		c0.3-0.1,0.6-0.2,1-0.4l0.1,0.1v1c0.4-0.4,0.8-0.6,1.1-0.7c0.4-0.2,0.7-0.3,1-0.3c0.5,0,1,0.2,1.3,0.6c0.1,0.1,0.2,0.4,0.3,0.5
		c0.4-0.4,0.7-0.7,1-0.8c0.4-0.2,0.7-0.3,1.1-0.3c0.5,0,1,0.2,1.3,0.6c0.3,0.4,0.4,1,0.4,1.8V62c0,0.4,0.1,0.7,0.1,0.9
		c0.1,0.1,0.4,0.2,0.7,0.2v0.2h-1.5h-1.5v-0.2c0.4,0,0.7-0.1,0.7-0.2C48,62.7,48,62.4,48,62v-3c0-0.4-0.1-0.8-0.2-1
		s-0.4-0.4-0.7-0.4s-0.6,0.1-0.9,0.2c-0.2,0.1-0.4,0.3-0.7,0.6V62c0,0.4,0.1,0.7,0.2,0.9s0.4,0.2,0.8,0.2v0.2H45h-1.6v-0.2
		c0.4,0,0.7-0.1,0.7-0.2s0.1-0.4,0.1-0.9v-3c0-0.4-0.1-0.8-0.2-1c-0.1-0.2-0.4-0.3-0.7-0.3c-0.3,0-0.6,0.1-0.9,0.2
		c-0.2,0.1-0.4,0.3-0.7,0.6V62c0,0.4,0.1,0.7,0.1,0.9c0.1,0.1,0.4,0.2,0.7,0.2v0.2h-1.6h-1.6v-0.2c0.4,0,0.7-0.1,0.8-0.2
		C40.6,62.6,40.6,62.3,40.6,61.8z"/>
	<path class="st0" d="M52.2,63.2c-0.4,0-0.8-0.1-1-0.4c-0.3-0.3-0.4-0.6-0.4-1s0.1-0.8,0.4-1.2s0.8-0.7,1.6-1l1.4-0.6v-0.7
		c0-0.4-0.1-0.7-0.2-1c-0.1-0.2-0.4-0.3-0.8-0.3c-0.4,0-0.6,0.1-0.8,0.3c-0.1,0.1-0.2,0.4-0.1,0.7c0.1,0.2,0.1,0.4-0.1,0.6
		c-0.1,0.1-0.3,0.2-0.5,0.2c-0.1,0-0.3-0.1-0.4-0.1c-0.1-0.1-0.1-0.2-0.1-0.4c0-0.4,0.2-0.8,0.7-1.1s1-0.4,1.6-0.4
		c0.7,0,1.2,0.1,1.6,0.4s0.5,0.8,0.5,1.4v3.2c0,0.2,0,0.4,0.1,0.5c0.1,0.1,0.1,0.1,0.3,0.1c0.1,0,0.2,0,0.3-0.1s0.2-0.1,0.3-0.2v0.4
		c-0.1,0.2-0.4,0.4-0.6,0.5c-0.2,0.1-0.4,0.2-0.7,0.2c-0.3,0-0.5-0.1-0.7-0.3c-0.1-0.1-0.2-0.4-0.2-0.7c-0.1,0.1-0.4,0.3-0.6,0.4
		C53.1,63.1,52.6,63.2,52.2,63.2z M54.1,61.4v-2.1l-0.7,0.3c-0.4,0.1-0.8,0.4-1.1,0.7c-0.2,0.3-0.4,0.6-0.4,1c0,0.3,0,0.3,0,0
		c0,0.3,0.1,0.6,0.2,0.8c0.1,0.2,0.4,0.3,0.7,0.3c0.4,0,0.7-0.1,1-0.4C54,62,54,61.9,54,61.8C54.1,61.7,54.1,61.6,54.1,61.4z"/>
	<path class="st0" d="M57.4,61.8v-3.3c0-0.4-0.1-0.7-0.1-0.7c-0.1-0.1-0.4-0.1-0.7,0v-0.2c0.4-0.1,0.7-0.2,1-0.4
		c0.3-0.1,0.6-0.2,1-0.4l0.1,0.1v1.3c0.2-0.4,0.4-0.7,0.7-0.9c0.3-0.3,0.7-0.4,1-0.4c0.2,0,0.4,0.1,0.5,0.2c0.1,0.1,0.2,0.3,0.2,0.5
		c0,0.1-0.1,0.3-0.1,0.4c-0.1,0.1-0.2,0.1-0.4,0.1c-0.1,0-0.1,0-0.2-0.1c-0.1,0-0.1-0.1-0.2-0.1c-0.1-0.1-0.1-0.1-0.2-0.2
		c-0.1-0.1-0.1-0.1-0.1-0.1c-0.1,0-0.3,0.1-0.4,0.2c-0.1,0.1-0.2,0.2-0.3,0.4c-0.1,0.1-0.1,0.1-0.1,0.2c-0.1,0.1-0.1,0.1-0.1,0.2
		v3.1c0,0.4,0.1,0.7,0.2,0.9c0.1,0.1,0.4,0.2,1,0.2v0.2h-1.6h-1.6v-0.2c0.4,0,0.7-0.1,0.8-0.2C57.3,62.6,57.4,62.3,57.4,61.8z"/>
	<path class="st0" d="M63.3,61.8c0,0.4,0.1,0.7,0.2,0.9c0.1,0.1,0.4,0.2,0.8,0.2v0.2h-1.6h-1.6v-0.2c0.4,0,0.7-0.1,0.9-0.2
		c0.1-0.1,0.2-0.4,0.2-0.9v-6.5c0-0.4-0.1-0.7-0.2-0.7c-0.1-0.1-0.4-0.1-0.9-0.1v-0.2c0.4-0.1,0.8-0.2,1.1-0.3s0.7-0.2,1.1-0.3
		l0.1,0.1v5.8l0,0l1.6-1.4c0.4-0.4,0.6-0.6,0.6-0.7s-0.2-0.2-0.7-0.2v-0.2h1.4h1.4v0.2c-0.4,0-0.7,0.1-1,0.2
		c-0.3,0.1-0.7,0.4-1.2,0.9l-1.1,1l2.1,2.6c0.4,0.4,0.7,0.7,0.8,0.9c0.1,0.1,0.4,0.2,0.7,0.2v0.2h-1.5h-1.5v-0.2
		c0.4,0,0.5-0.1,0.5-0.1c0-0.1-0.1-0.4-0.4-0.8l-1.7-2.2l0,0L63.3,61.8L63.3,61.8z"/>
	<path class="st0" d="M72.3,61.7v-4.4h-0.7c-0.1,0-0.1,0-0.1-0.1l0,0c0-0.1,0-0.1,0.1-0.1c0.3-0.2,0.6-0.4,0.8-0.7
		c0.3-0.3,0.6-0.7,0.9-1.2l0.1-0.1c0,0,0.1,0,0.1,0.1c0,0,0,0.1,0,0.1v1.6h1.4v0.4h-1.4v4c0,0.4,0.1,0.7,0.1,0.9s0.3,0.3,0.5,0.3
		c0.1,0,0.3-0.1,0.4-0.1c0.1-0.1,0.3-0.2,0.4-0.4l0.1,0.1c-0.2,0.4-0.4,0.6-0.7,0.7c-0.3,0.1-0.5,0.2-0.9,0.2s-0.7-0.1-0.9-0.4
		C72.5,62.6,72.3,62.2,72.3,61.7z"/>
	<path class="st0" d="M76.4,62.3c-0.6-0.6-0.8-1.3-0.8-2.3c0-1,0.3-1.8,0.8-2.4c0.6-0.6,1.3-0.9,2.2-0.9s1.6,0.3,2.2,0.9
		c0.6,0.6,0.8,1.3,0.8,2.3c0,1-0.3,1.7-0.8,2.4c-0.6,0.6-1.3,0.9-2.2,0.9S77,62.9,76.4,62.3z M80,62.3c0.3-0.4,0.4-1,0.4-1.6
		c0-1-0.1-1.9-0.5-2.5c-0.4-0.7-0.8-1-1.4-1c-0.5,0-0.9,0.2-1.2,0.6s-0.4,1-0.4,1.6c0,1,0.1,1.9,0.5,2.5c0.4,0.7,0.8,1,1.4,1
		C79.4,62.9,79.7,62.6,80,62.3z"/>
	<path class="st0" d="M91.3,61.1c-0.3,0.7-0.7,1.3-1.2,1.6c-0.4,0.4-1,0.5-1.6,0.5c-0.7,0-1.4-0.3-1.9-0.9C86.2,61.7,86,61,86,60.1
		c0-1,0.3-1.8,0.9-2.5s1.3-1,2.2-1c0.5,0,1,0.1,1.4,0.4c0.4,0.3,0.6,0.6,0.6,1c0,0.1-0.1,0.3-0.1,0.4c-0.1,0.1-0.3,0.1-0.4,0.1
		c-0.2,0-0.4-0.1-0.4-0.2s-0.2-0.4-0.3-0.7s-0.1-0.5-0.3-0.6c-0.1-0.1-0.4-0.1-0.7-0.1c-0.5,0-1,0.2-1.3,0.7c-0.4,0.4-0.5,1-0.5,1.8
		s0.2,1.3,0.6,1.9c0.4,0.5,0.9,0.7,1.5,0.7c0.4,0,0.7-0.1,1-0.3s0.6-0.5,1-1L91.3,61.1z"/>
	<path class="st0" d="M92.8,61.8v-3.3c0-0.4-0.1-0.7-0.1-0.7c-0.1-0.1-0.4-0.1-0.7,0v-0.2c0.4-0.1,0.7-0.2,1-0.4
		c0.3-0.1,0.6-0.2,1-0.4l0.1,0.1v1.3c0.2-0.4,0.4-0.7,0.7-0.9c0.3-0.3,0.7-0.4,1-0.4c0.2,0,0.4,0.1,0.5,0.2s0.2,0.3,0.2,0.5
		c0,0.1-0.1,0.3-0.1,0.4c-0.1,0.1-0.2,0.1-0.4,0.1c-0.1,0-0.1,0-0.2-0.1c-0.1,0-0.1-0.1-0.2-0.1c-0.1-0.1-0.1-0.1-0.2-0.2
		c-0.1-0.1-0.1-0.1-0.1-0.1c-0.1,0-0.3,0.1-0.4,0.2c-0.1,0.1-0.2,0.2-0.3,0.4c-0.1,0.1-0.1,0.1-0.1,0.2c-0.1,0.1-0.1,0.1-0.1,0.2
		v3.1c0,0.4,0.1,0.7,0.2,0.9s0.4,0.2,1,0.2v0.2h-1.6h-1.6v-0.2c0.4,0,0.7-0.1,0.8-0.2C92.8,62.6,92.8,62.3,92.8,61.8z"/>
	<path class="st0" d="M99.3,63.2c-0.7,0-1.4-0.3-1.9-0.8c-0.4-0.5-0.7-1.3-0.7-2.2s0.3-1.8,0.8-2.5c0.5-0.7,1.2-1,2-1
		c0.7,0,1.3,0.2,1.8,0.7c0.4,0.4,0.6,1,0.7,1.8h-4.3c0,0.9,0.2,1.6,0.6,2.2c0.4,0.5,0.9,0.8,1.6,0.8c0.4,0,0.8-0.1,1.1-0.3
		s0.7-0.6,1-1.1l0.2,0.1c-0.4,0.8-0.7,1.3-1.2,1.7C100.6,63.1,100,63.2,99.3,63.2z M100.6,58.8c-0.1-0.4-0.1-0.8-0.3-1
		c-0.2-0.4-0.5-0.5-1-0.5l0,0c-0.4,0-0.8,0.1-1.1,0.5c-0.2,0.3-0.3,0.6-0.4,1H100.6z"/>
	<path class="st0" d="M104.5,63.2c-0.4,0-0.8-0.1-1-0.4c-0.3-0.3-0.4-0.6-0.4-1s0.1-0.8,0.4-1.2s0.8-0.7,1.6-1l1.4-0.6v-0.7
		c0-0.4-0.1-0.7-0.2-1s-0.4-0.3-0.8-0.3s-0.6,0.1-0.8,0.3c-0.1,0.1-0.2,0.4-0.1,0.7c0.1,0.2,0.1,0.4-0.1,0.6
		c-0.1,0.1-0.3,0.2-0.5,0.2c-0.1,0-0.3-0.1-0.4-0.1c-0.1-0.1-0.1-0.2-0.1-0.4c0-0.4,0.2-0.8,0.7-1.1c0.4-0.3,1-0.4,1.6-0.4
		c0.7,0,1.2,0.1,1.6,0.4s0.5,0.8,0.5,1.4v3.2c0,0.2,0,0.4,0.1,0.5c0.1,0.1,0.1,0.1,0.3,0.1c0.1,0,0.2,0,0.3-0.1s0.2-0.1,0.3-0.2v0.4
		c-0.1,0.2-0.4,0.4-0.6,0.5c-0.2,0.1-0.4,0.2-0.7,0.2c-0.3,0-0.5-0.1-0.7-0.3c-0.1-0.1-0.2-0.4-0.2-0.7c-0.1,0.1-0.4,0.3-0.6,0.4
		C105.5,63.1,105,63.2,104.5,63.2z M106.6,61.4v-2.1l-0.7,0.3c-0.4,0.1-0.8,0.4-1.1,0.7c-0.2,0.3-0.4,0.6-0.4,1c0,0.3,0,0.3,0,0
		c0,0.3,0.1,0.6,0.2,0.8c0.1,0.2,0.4,0.3,0.7,0.3c0.4,0,0.7-0.1,1-0.4c0.1-0.1,0.2-0.1,0.2-0.2C106.6,61.7,106.6,61.6,106.6,61.4z"
		/>
	<path class="st0" d="M109.7,61.7v-4.4H109c-0.1,0-0.1,0-0.1-0.1l0,0c0-0.1,0-0.1,0.1-0.1c0.3-0.2,0.6-0.4,0.8-0.7
		c0.3-0.3,0.6-0.7,0.9-1.2l0.1-0.1c0,0,0.1,0,0.1,0.1c0,0,0,0.1,0,0.1v1.6h1.4v0.4h-1.4v4c0,0.4,0.1,0.7,0.1,0.9s0.3,0.3,0.5,0.3
		c0.1,0,0.3-0.1,0.4-0.1c0.1-0.1,0.3-0.2,0.4-0.4l0.1,0.1c-0.2,0.4-0.4,0.6-0.7,0.7c-0.3,0.1-0.5,0.2-0.9,0.2s-0.7-0.1-0.9-0.4
		C109.9,62.6,109.7,62.2,109.7,61.7z"/>
	<path class="st0" d="M115.5,63.2c-0.7,0-1.4-0.3-1.9-0.8c-0.4-0.5-0.7-1.3-0.7-2.2s0.3-1.8,0.8-2.5c0.5-0.7,1.2-1,2-1
		c0.7,0,1.3,0.2,1.8,0.7c0.4,0.4,0.6,1,0.7,1.8H114c0,0.9,0.2,1.6,0.6,2.2c0.4,0.5,0.9,0.8,1.6,0.8c0.4,0,0.8-0.1,1.1-0.3
		c0.3-0.2,0.7-0.6,1-1.1l0.2,0.1c-0.4,0.8-0.7,1.3-1.2,1.7C116.7,63.1,116.1,63.2,115.5,63.2z M116.8,58.8c-0.1-0.4-0.1-0.8-0.3-1
		c-0.2-0.4-0.5-0.5-1-0.5l0,0c-0.4,0-0.8,0.1-1.1,0.5c-0.2,0.3-0.3,0.6-0.4,1H116.8z"/>
	<path class="st0" d="M123.2,61.7v-4.4h-0.7c-0.1,0-0.1,0-0.1-0.1l0,0c0-0.1,0-0.1,0.1-0.1c0.3-0.2,0.6-0.4,0.8-0.7
		c0.3-0.3,0.6-0.7,0.9-1.2l0.1-0.1c0,0,0.1,0,0.1,0.1c0,0,0,0.1,0,0.1v1.6h1.4v0.4h-1.4v4c0,0.4,0.1,0.7,0.1,0.9
		c0.1,0.1,0.3,0.3,0.5,0.3c0.1,0,0.3-0.1,0.4-0.1c0.1-0.1,0.3-0.2,0.4-0.4l0.1,0.1c-0.2,0.4-0.4,0.6-0.7,0.7
		c-0.3,0.1-0.5,0.2-0.9,0.2s-0.7-0.1-0.9-0.4C123.3,62.6,123.2,62.2,123.2,61.7z"/>
	<path class="st0" d="M127.1,61.8v-6.5c0-0.4-0.1-0.7-0.1-0.7c-0.1-0.1-0.4-0.1-0.7-0.1v-0.2c0.4-0.1,0.7-0.2,1-0.3
		c0.3-0.1,0.6-0.2,1-0.3l0.1,0.1v4.2c0.3-0.3,0.6-0.6,0.8-0.7c0.4-0.2,0.7-0.4,1.1-0.4c0.6,0,1,0.2,1.3,0.6c0.3,0.4,0.4,0.9,0.4,1.6
		v2.8c0,0.4,0.1,0.7,0.1,0.9c0.1,0.1,0.3,0.2,0.7,0.2v0.2h-1.4h-1.4V63c0.4,0,0.6-0.1,0.7-0.2c0.1-0.1,0.1-0.4,0.1-0.9V59
		c0-0.5-0.1-0.8-0.3-1.1c-0.2-0.3-0.4-0.4-0.8-0.4c-0.2,0-0.5,0.1-0.7,0.2c-0.2,0.1-0.4,0.4-0.7,0.7v3.4c0,0.4,0.1,0.7,0.1,0.9
		c0.1,0.1,0.4,0.2,0.7,0.2v0.2h-1.4h-1.5v-0.2c0.4,0,0.6-0.1,0.7-0.2C127,62.6,127.1,62.3,127.1,61.8z"/>
	<path class="st0" d="M135.9,63.2c-0.7,0-1.4-0.3-1.9-0.8c-0.4-0.5-0.7-1.3-0.7-2.2s0.3-1.8,0.8-2.5c0.5-0.7,1.2-1,2-1
		c0.7,0,1.3,0.2,1.8,0.7c0.4,0.4,0.6,1,0.7,1.8h-4.3c0,0.9,0.2,1.6,0.6,2.2c0.4,0.5,0.9,0.8,1.6,0.8c0.4,0,0.8-0.1,1.1-0.3
		s0.7-0.6,1-1.1l0.2,0.1c-0.4,0.8-0.7,1.3-1.2,1.7C137.2,63.1,136.6,63.2,135.9,63.2z M137.2,58.8c-0.1-0.4-0.1-0.8-0.3-1
		c-0.2-0.4-0.5-0.5-1-0.5l0,0c-0.4,0-0.8,0.1-1.1,0.5c-0.2,0.3-0.3,0.6-0.4,1H137.2z"/>
	<path class="st0" d="M144,61.7v-6.2c0-0.5-0.1-0.8-0.2-1c-0.1-0.1-0.4-0.2-1-0.2V54h2.6h4.7v1v1h-0.3c-0.1-0.6-0.2-1-0.5-1.2
		c-0.3-0.2-0.8-0.3-1.6-0.3h-1.8c-0.2,0-0.3,0-0.4,0.1s-0.1,0.2-0.1,0.4v3.1h1.9c0.6,0,1-0.1,1.2-0.2c0.1-0.1,0.4-0.5,0.4-1h0.3v1.6
		v1.6H149c-0.1-0.5-0.2-0.9-0.4-1c-0.2-0.1-0.6-0.2-1.2-0.2h-1.9v3.1c0,0.5,0.1,0.8,0.2,1s0.5,0.2,1.1,0.2v0.3h-2h-2v-0.3
		c0.5,0,0.8-0.1,1-0.2C143.9,62.4,144,62.1,144,61.7z"/>
	<path class="st0" d="M152.5,61.2c0,0.4,0.1,0.7,0.3,0.9c0.1,0.2,0.4,0.3,0.7,0.3c0.2,0,0.4-0.1,0.7-0.2c0.1-0.1,0.3-0.1,0.4-0.3
		c0.1-0.1,0.1-0.1,0.1-0.2c0.1-0.1,0.1-0.1,0.1-0.3v-3.3c0-0.4-0.1-0.7-0.2-0.9c-0.1-0.1-0.4-0.2-0.8-0.2v-0.2h1.1h1.1v4.7
		c0,0.4,0.1,0.6,0.1,0.7c0.1,0.1,0.4,0.1,0.7,0.1v0.2l-1,0.3l-1,0.3L155,63v-1c-0.4,0.4-0.8,0.7-1,0.9c-0.3,0.1-0.6,0.2-1,0.2
		c-0.5,0-1-0.1-1.3-0.5s-0.4-0.8-0.4-1.4v-3.1c0-0.4-0.1-0.7-0.1-0.9c-0.1-0.1-0.4-0.2-0.7-0.2v-0.2h1h1L152.5,61.2L152.5,61.2z"/>
	<path class="st0" d="M158.2,61.7v-4.4h-0.7c-0.1,0-0.1,0-0.1-0.1l0,0c0-0.1,0-0.1,0.1-0.1c0.3-0.2,0.6-0.4,0.8-0.7
		c0.3-0.3,0.6-0.7,0.9-1.2l0.1-0.1c0,0,0.1,0,0.1,0.1c0,0,0,0.1,0,0.1v1.6h1.4v0.4h-1.4v4c0,0.4,0.1,0.7,0.1,0.9
		c0.1,0.1,0.3,0.3,0.5,0.3c0.1,0,0.3-0.1,0.4-0.1c0.1-0.1,0.3-0.2,0.4-0.4l0.1,0.1c-0.2,0.4-0.4,0.6-0.7,0.7
		c-0.3,0.1-0.5,0.2-0.9,0.2s-0.7-0.1-0.9-0.4C158.4,62.6,158.2,62.2,158.2,61.7z"/>
	<path class="st0" d="M163.3,61.2c0,0.4,0.1,0.7,0.3,0.9c0.1,0.2,0.4,0.3,0.7,0.3c0.2,0,0.4-0.1,0.7-0.2c0.1-0.1,0.3-0.1,0.4-0.3
		c0.1-0.1,0.1-0.1,0.1-0.2c0.1-0.1,0.1-0.1,0.1-0.3v-3.3c0-0.4-0.1-0.7-0.2-0.9c-0.1-0.1-0.4-0.2-0.8-0.2v-0.2h1.1h1.1v4.7
		c0,0.4,0.1,0.6,0.1,0.7c0.1,0.1,0.4,0.1,0.7,0.1v0.2l-1,0.3l-1,0.3l-0.1-0.1v-1c-0.4,0.4-0.8,0.7-1,0.9c-0.3,0.1-0.6,0.2-1,0.2
		c-0.5,0-1-0.1-1.3-0.5s-0.3-0.7-0.3-1.3v-3.1c0-0.4-0.1-0.7-0.1-0.9c-0.1-0.1-0.4-0.2-0.7-0.2v-0.2h1h1L163.3,61.2L163.3,61.2z"/>
	<path class="st0" d="M169.2,61.8v-3.3c0-0.4-0.1-0.7-0.1-0.7c-0.1-0.1-0.4-0.1-0.7,0v-0.2c0.4-0.1,0.7-0.2,1-0.4
		c0.3-0.1,0.6-0.2,1-0.4l0.1,0.1v1.3c0.2-0.4,0.4-0.7,0.7-0.9c0.3-0.3,0.7-0.4,1-0.4c0.2,0,0.4,0.1,0.5,0.2s0.2,0.3,0.2,0.5
		c0,0.1-0.1,0.3-0.1,0.4c-0.1,0.1-0.2,0.1-0.4,0.1c-0.1,0-0.1,0-0.2-0.1c-0.1,0-0.1-0.1-0.2-0.1s-0.1-0.1-0.2-0.2
		c-0.1-0.1-0.1-0.1-0.1-0.1c-0.1,0-0.3,0.1-0.4,0.2c-0.1,0.1-0.2,0.2-0.3,0.4c-0.1,0.1-0.1,0.1-0.1,0.2c-0.1,0.1-0.1,0.1-0.1,0.2
		v3.1c0,0.4,0.1,0.7,0.2,0.9s0.4,0.2,1,0.2v0.2h-1.6h-1.9v-0.2c0.4,0,0.7-0.1,0.8-0.2C169.1,62.6,169.2,62.3,169.2,61.8z"/>
	<path class="st0" d="M175.6,63.2c-0.7,0-1.4-0.3-1.9-0.8c-0.4-0.5-0.7-1.3-0.7-2.2s0.3-1.8,0.8-2.5c0.5-0.7,1.2-1,2-1
		c0.7,0,1.3,0.2,1.8,0.7c0.4,0.4,0.6,1,0.7,1.8h-4.3c0,0.9,0.2,1.6,0.6,2.2c0.4,0.5,0.9,0.8,1.6,0.8c0.4,0,0.8-0.1,1.1-0.3
		s0.7-0.6,1-1.1l0.2,0.1c-0.4,0.8-0.7,1.3-1.2,1.7C176.9,63.1,176.3,63.2,175.6,63.2z M176.9,58.8c-0.1-0.4-0.1-0.8-0.3-1
		c-0.2-0.4-0.5-0.5-1-0.5l0,0c-0.4,0-0.8,0.1-1.1,0.5c-0.2,0.3-0.3,0.6-0.4,1H176.9z"/>
</g>
<g>
	<g>
		<path class="st1" d="M150.5,21.2v-2.8L154,1.9h4.5l-4.1,19.3H150.5L150.5,21.2z M150.5,4.7l0.6-2.8h-0.6V4.7z M150.5,1.8v2.8
			l-0.1,0.5H150V1.8H150.5L150.5,1.8z M150.5,18.5v2.8H150V21L150.5,18.5L150.5,18.5z M150,7.1V6.9h0L150,7.1z M150,1.8v3.4h-4.1
			l0.7-3.4H150L150,1.8z M150,6.9v0.2l-3,14.1h-3.9v-2.8l2.4-11.5H150L150,6.9z M150,21l-0.1,0.3h0.1V21L150,21z M143.1,4.7V1.9h0.6
			L143.1,4.7z M143.1,1.9v2.8l-3.5,16.5H135l0.3-1.7h-0.1c-0.5,0.6-1.1,1.1-1.8,1.5v-2.8c1.6-0.3,2.6-1.7,3.1-4
			c0.1-0.6,0.2-1.2,0.2-1.7c0-1.7-0.8-2.5-2.5-2.5c-0.3,0-0.6,0-0.9,0.1V6.6c0,0,0.1,0,0.1,0c2.2,0,3.6,0.7,4.1,2.1h0.1l1.5-6.8
			H143.1L143.1,1.9z M143.1,18.4l-0.6,2.8h0.6V18.4z M133.4,6.6V10c-1.6,0.3-2.6,1.7-3.1,4.1c-0.1,0.6-0.2,1.2-0.2,1.7
			c0,1.6,0.8,2.4,2.4,2.4c0.3,0,0.6,0,0.9-0.1V21c-0.9,0.4-1.9,0.7-3.1,0.7c-1.6,0-2.9-0.5-3.8-1.4c-0.8-0.9-1.2-2.2-1.2-3.8
			c0-0.8,0.1-1.5,0.3-2.4c0.5-2.3,1.4-4.1,2.8-5.5C129.8,7.3,131.5,6.6,133.4,6.6L133.4,6.6z M116.2,21.6v-3.1
			c1.6-0.4,2.7-1.9,3.2-4.4c0.1-0.7,0.2-1.3,0.2-1.8c0-1.7-0.8-2.6-2.4-2.6c-0.3,0-0.7,0-1,0.1V6.6c0.5-0.1,1.1-0.1,1.6-0.1
			c4.4,0,6.5,1.7,6.5,5.2c0,0.7-0.1,1.5-0.3,2.3C123.2,18.6,120.5,21.1,116.2,21.6z M116.2,6.6v3.1c-1.6,0.4-2.7,1.8-3.2,4.3
			c-0.2,0.7-0.2,1.3-0.2,1.9c0,1.8,0.8,2.7,2.5,2.7c0.3,0,0.6,0,0.9-0.1v3.1c-0.5,0.1-1,0.1-1.6,0.1c-2.6,0-4.5-0.6-5.6-1.9v-8.3
			C110.5,8.6,112.8,7,116.2,6.6L116.2,6.6z M109.1,4.5V1.7c0.3,0,0.7,0,1.1,0.1l-0.6,2.8C109.5,4.5,109.4,4.5,109.1,4.5z M109.1,1.7
			v2.8c0,0-0.1,0-0.1,0c-0.3,0-0.5,0-0.5,0c-0.7,0-1.2,0.1-1.4,0.3c-0.3,0.2-0.4,0.5-0.5,0.9l-0.2,1.1h2.7l-0.7,3.1h-2.7l-2.4,11.2
			h-3.8v-3.6l1.6-7.6h-1.6V6.9h2.3l0.4-2.1c0.4-2.1,2.1-3.3,5.1-3.3C107.9,1.6,108.5,1.6,109.1,1.7L109.1,1.7z M109.1,11.5
			c-0.3,0.8-0.6,1.6-0.8,2.5c-0.2,0.9-0.3,1.7-0.3,2.4c0,1.4,0.4,2.5,1.1,3.4V11.5L109.1,11.5z M99.5,4.5c0.1,0,0.1,0,0.1,0l0.6-2.8
			c-0.3,0-0.5,0-0.8-0.1V4.5z M99.5,1.7v2.8c-0.1,0-0.3,0-0.4,0c-0.3,0-0.5,0-0.5,0c-0.7,0-1.1,0.1-1.4,0.3
			c-0.3,0.2-0.4,0.5-0.5,0.9l-0.2,1.1H99L98.3,10h-2.7l-2.4,11.2h-4.5L91.1,10h-2.3l0.7-3.1h2.4l0.4-2.1c0.4-2.1,2.1-3.3,5.2-3.3
			C98,1.6,98.7,1.6,99.5,1.7L99.5,1.7z M99.5,6.9L99.5,6.9L98.8,10h0.7V6.9L99.5,6.9z M99.5,17.6l-0.8,3.6h0.8V17.6L99.5,17.6z
			 M78.6,21v-2.5c0.4-0.1,0.9-0.3,1.2-0.5c0.8-0.5,1.3-1.2,1.5-2.2l0.4-1.7c-0.3,0.2-0.9,0.3-1.8,0.4c-0.4,0.1-0.9,0.2-1.3,0.2v-2.3
			c1.1-0.1,1.7-0.2,1.8-0.2c0.7-0.1,1.2-0.3,1.5-0.5c0.3-0.2,0.5-0.6,0.6-1.1c0-0.1,0-0.2,0-0.3c0-0.8-0.7-1.2-2.1-1.2
			c-0.7,0-1.3,0.1-1.7,0.3V6.7c0.8-0.1,1.6-0.2,2.5-0.2c2.1,0,3.6,0.3,4.5,0.8c0.9,0.5,1.3,1.3,1.3,2.5c0,0.4,0,0.9-0.2,1.4
			l-1.6,7.6c-0.2,0.7-0.1,1.1,0.2,1.3c0.2,0.1,0.3,0.1,0.3,0.1c-0.1,0.7-0.1,1.1-0.1,1.1c0,0-0.7,0-2,0.1c-1.3,0.1-2.1,0.1-2.3,0.1
			c-0.4-0.2-0.6-0.6-0.6-1.1c0-0.1,0-0.2,0-0.3l0-0.4h-0.1C80.1,20.2,79.4,20.6,78.6,21z M70.7,6.6c0.1,0.5,0.1,1,0.1,1.5
			c0,0.5,0,1.1-0.1,1.8V6.6L70.7,6.6z M78.6,6.7v2.9c-0.8,0.3-1.3,0.9-1.5,1.8h-4.3c0.5-1.7,1.3-2.9,2.5-3.6
			C76.1,7.2,77.2,6.8,78.6,6.7L78.6,6.7z M78.6,12.6v2.3c-0.3,0-0.5,0.1-0.8,0.1c-1.3,0.2-2,0.9-2.2,1.9c0,0.2-0.1,0.3-0.1,0.4
			c0,0.9,0.6,1.4,1.8,1.4c0.5,0,0.9-0.1,1.3-0.2V21c-1,0.4-2.2,0.7-3.5,0.7c-2.5,0-4-0.8-4.4-2.2v-2.1c0,0,0,0,0-0.1
			c0.5-2.6,2.5-4,5.8-4.4C77.3,12.7,78.1,12.6,78.6,12.6z M70.4,11.7c-0.6,3-1.8,5.3-3.4,6.9c-1.6,1.6-3.6,2.5-6,2.6v-3.6
			c0.9-0.2,1.7-0.7,2.3-1.4c0.9-1,1.6-2.6,2.1-4.7c0.3-1.1,0.3-2,0.3-2.8c0-1.2-0.3-2-0.8-2.5c-0.5-0.5-1.4-0.8-2.6-0.8H61V2.1h3.4
			c3.7,0,5.8,1.5,6.3,4.4v3.3C70.6,10.5,70.5,11.1,70.4,11.7L70.4,11.7z M70.7,17.3c-0.1,0.4-0.1,0.8-0.1,1.1c0,0.3,0,0.7,0.1,0.9
			V17.3z M61,21.2c-0.2,0-0.4,0-0.6,0h-9.8l4.1-19.1H61v3.4h-2.1l-2.6,12.2h3.2c0.5,0,1-0.1,1.5-0.2V21.2z"/>
		<path class="st2" d="M147.8,31.6L147.8,31.6c0.4-0.9,1-2.8,1.8-6c0.4-1.6,0.7-2.9,1-3.8c0.5-1.7,1.1-3.1,1.7-4
			c0.7-0.9,1.4-1.4,2.2-1.4c0.4,0,0.8,0.1,1,0.4c0.3,0.3,0.4,0.6,0.4,1c0,0.4-0.1,0.9-0.4,1.3c-0.3,0.4-0.7,0.9-1.2,1.3
			c-0.3,0.2-0.4,0.3-0.7,0.4c-0.2,0.1-0.3,0.2-0.4,0.2c0,0-0.1,0-0.1,0c0,0,0,0,0,0c0,0,0.1-0.1,0.2-0.2c1-0.8,1.6-1.7,1.6-2.6
			c0-0.4-0.1-0.7-0.3-1c-0.2-0.3-0.3-0.4-0.6-0.4c-0.3,0-0.6,0.3-1.1,1.1c-0.4,0.7-0.7,1.5-0.9,2.5l-0.1,0.5c-1,4.7-2,8-3.1,9.7h2.6
			c0.7,0,1.2-0.2,1.6-0.4c0.4-0.3,0.6-0.4,0.6-0.4c0,0,0,0,0,0c0,0,0,0,0,0.1c0,0.1-0.1,0.2-0.3,0.4c-0.2,0.2-0.4,0.4-0.7,0.7
			c-0.4,0.3-0.7,0.5-1.1,0.6c-0.3,0.1-1,0.2-1.7,0.2c-0.5,0-0.9,0-1.2,0C148.3,31.6,148,31.6,147.8,31.6L147.8,31.6z M147.8,30
			C147.8,29.9,147.8,29.9,147.8,30c0-0.1,0-0.1,0-0.1V30z M147.8,29.8V30c-0.1,0.2-0.3,0.5-0.8,0.9c-0.5,0.5-1,0.8-1.5,0.8
			c-0.4,0-0.7-0.2-0.9-0.4c-0.2-0.3-0.4-0.7-0.5-1.3c-0.4,0.5-0.8,0.8-1.1,1.1v-0.7c0.2-0.1,0.5-0.3,0.7-0.5c0.4-0.4,0.8-1,1.1-1.7
			c0.3-0.7,0.5-1.2,0.5-1.7c0-0.3-0.1-0.4-0.2-0.5c-0.1-0.1-0.3-0.2-0.6-0.2c-0.5,0-1,0.1-1.5,0.3l0,0v-0.4c0.5-0.2,1.1-0.3,1.7-0.3
			c0.5,0,0.9,0.1,1.2,0.4c0.3,0.3,0.4,0.6,0.4,1c0,0.3-0.1,0.7-0.3,1.4c-0.2,0.6-0.6,1.4-1,2.4h0.8c0.6,0,1.1-0.2,1.6-0.6
			C147.6,29.8,147.7,29.8,147.8,29.8C147.7,29.8,147.8,29.8,147.8,29.8L147.8,29.8L147.8,29.8z M147.8,31.5
			C147.8,31.6,147.8,31.6,147.8,31.5L147.8,31.5L147.8,31.5z M143,25.8v0.4c-0.4,0.3-0.9,0.6-1.3,1.2c-0.3,0.4-0.5,0.9-0.7,1.2
			c-0.2,0.4-0.3,0.7-0.3,1c0,0.3,0.1,0.6,0.3,0.7c0.2,0.1,0.4,0.2,0.9,0.2c0.5,0,0.8-0.1,1.1-0.2l0,0V31c-0.1,0.1-0.3,0.2-0.4,0.3
			c-0.4,0.3-0.9,0.4-1.3,0.4c-0.5,0-0.9-0.2-1.2-0.4c-0.3-0.3-0.4-0.7-0.4-1.2c0-0.6,0.2-1.1,0.4-1.7c0.3-0.5,0.7-1,1.3-1.6
			C141.9,26.3,142.4,26,143,25.8C143,25.8,143,25.8,143,25.8L143,25.8z M126.7,31.7v-1.1h1.6c0.3-0.4,0.5-0.9,0.6-1.2
			c0.1-0.4,0.2-0.8,0.2-1.2c0-0.7-0.2-1.3-0.6-1.7c-0.4-0.4-0.9-0.6-1.5-0.6c-0.1,0-0.3,0-0.4,0v-0.4c0.4-0.1,0.7-0.1,1.1-0.1
			c0.8,0,1.4,0.2,1.9,0.6c0.4,0.4,0.7,0.9,0.7,1.6c0,0.5-0.1,1-0.3,1.5c-0.3,0.5-0.6,1-1,1.4c-0.4,0.4-0.9,0.8-1.4,1
			C127.2,31.6,127,31.7,126.7,31.7L126.7,31.7z M130.9,31.6c0.6-1.4,1-2.6,1.2-3.6c0.3-1,0.3-2,0.3-2.8v-0.3
			c0.3,0.2,0.6,0.4,0.8,0.7c0.2,0.3,0.2,0.7,0.2,1.2c0,0.1,0,0.3,0,0.6c0,0,0,0.1,0,0.1c0.7-0.7,1.3-1.3,1.8-1.6
			c0.5-0.3,1-0.5,1.5-0.5c0.4,0,0.8,0.1,1,0.3c0.2,0.2,0.3,0.5,0.3,0.9c0,0.5-0.2,1-0.6,1.6c-0.4,0.6-1.1,1.4-2.1,2.2h1.8
			c0.6,0,1.2-0.2,1.7-0.6c0.1-0.1,0.2-0.1,0.2-0.1c0,0,0.1,0,0.1,0c0,0,0,0.1,0,0.1c0,0.3-0.3,0.6-0.9,1.1c-0.6,0.4-1.2,0.6-1.9,0.6
			h-2.1c0.8-1.1,1.5-2.1,1.9-2.8c0.4-0.8,0.6-1.4,0.6-1.7c0-0.3-0.1-0.5-0.2-0.6c-0.1-0.1-0.3-0.2-0.6-0.2c-0.5,0-1,0.2-1.5,0.6
			c-0.5,0.4-0.9,0.9-1.2,1.6c-0.3,0.7-0.6,1.2-0.8,1.7c-0.2,0.5-0.3,0.8-0.4,0.9c-0.1,0.3-0.2,0.4-0.3,0.4c-0.1,0.1-0.2,0.1-0.5,0.1
			H130.9z M126.7,25.5v0.4c-0.6,0.1-1.1,0.4-1.5,0.9c-0.6,0.7-0.9,1.4-0.9,2.2c0,0.5,0.2,0.9,0.4,1.2c0.3,0.2,0.7,0.3,1.4,0.3h0.6
			v1.1c-0.3,0.1-0.6,0.1-0.9,0.1c-0.9,0-1.5-0.2-2.1-0.6c-0.5-0.4-0.8-0.9-0.8-1.6c0-0.5,0.2-1.1,0.5-1.7c0.3-0.6,0.8-1.1,1.4-1.6
			c0.4-0.3,0.9-0.5,1.4-0.7C126.4,25.6,126.6,25.6,126.7,25.5L126.7,25.5z M107.7,31v-0.7c0.3-0.1,0.5-0.3,0.7-0.5
			c0.4-0.4,0.8-1,1.1-1.7c0.3-0.7,0.5-1.2,0.5-1.7c0-0.3-0.1-0.4-0.2-0.5c-0.1-0.1-0.3-0.2-0.6-0.2c-0.6,0-1,0.1-1.5,0.3h0v-0.4
			c0.5-0.2,1.1-0.3,1.7-0.3c0.5,0,0.9,0.1,1.2,0.4c0.3,0.3,0.4,0.6,0.4,1c0,0.3-0.1,0.7-0.3,1.4c-0.2,0.6-0.6,1.4-1,2.4h0.8
			c0.6,0,1.1-0.2,1.6-0.6c0.1-0.1,0.2-0.2,0.3-0.2c0.1,0,0.1,0,0.1,0c0,0,0,0.1,0,0.1c0,0.2-0.3,0.5-0.8,1c-0.5,0.5-1,0.8-1.5,0.8
			c-0.4,0-0.7-0.2-1-0.4c-0.2-0.3-0.3-0.7-0.4-1.3C108.4,30.4,108,30.8,107.7,31L107.7,31z M112.8,31.6c0.3-0.8,0.6-2.2,1.1-4.1
			c0.1-0.5,0.2-0.9,0.3-1.2h-0.6c-0.1,0-0.2,0-0.2,0c-0.1,0-0.1-0.1-0.1-0.1c0-0.3,0-0.4,0.1-0.5c0-0.1,0.2-0.2,0.3-0.2h0.6
			c0.3-1.1,0.6-2,0.9-2.7c0.3-0.7,0.6-1.3,0.9-1.8h0.4c0,0,0.1,0,0.1,0c0,0,0,0,0.1,0.1c0,0-0.1,0.1-0.1,0.3c-0.4,1.2-0.8,2.6-1,4.1
			h2c0.1,0,0.1,0,0.2,0.1c0,0,0.1,0,0.1,0.1c0,0.3,0,0.4-0.1,0.5c0,0.1-0.2,0.1-0.3,0.1h-2.1c-0.2,0.9-0.4,1.7-0.6,2.4
			c-0.3,0.7-0.6,1.3-1,1.9h2c0.7,0,1.3-0.2,1.7-0.7c0.1-0.1,0.2-0.1,0.2-0.1c0.1,0,0.1,0,0.2,0c0,0,0,0,0,0.1c0,0.3-0.3,0.6-0.9,1.1
			c-0.6,0.4-1.3,0.7-2,0.7H112.8L112.8,31.6z M120.5,24.4v-0.2c0-0.8,0.1-1.4,0.3-1.7c0.2-0.3,0.4-0.5,0.8-0.5c0.2,0,0.4,0,0.5,0.1
			c0.1,0.1,0.2,0.2,0.2,0.3c0,0.2-0.1,0.5-0.4,0.9c0,0,0,0.1-0.1,0.1l-0.9,1H120.5L120.5,24.4z M119.2,30.7h1.3
			c0.6,0,1.1-0.2,1.7-0.7c0.1-0.1,0.2-0.2,0.2-0.2c0,0,0.1,0,0.1,0c0.1,0,0.1,0.1,0.1,0.1c0,0.2-0.3,0.5-0.9,1
			c-0.6,0.5-1.1,0.8-1.6,0.8c-0.5,0-0.8-0.1-1.1-0.4c-0.3-0.3-0.3-0.7-0.3-1.2c0-0.3,0.1-0.7,0.2-1.3c0.1-0.6,0.3-1.4,0.6-2.3
			c0,0,0-0.1,0-0.2c0.2-0.6,0.3-0.9,0.6-0.9h0.6c0.2,0,0.3,0,0.3,0c0,0,0,0.1,0,0.2c0,0,0,0.1-0.1,0.2c-0.2,0.4-0.3,0.9-0.5,1.4
			c0,0.1-0.1,0.3-0.2,0.6C119.9,29.1,119.6,30,119.2,30.7z M69.7,18.4c0.2-0.2,0.3-0.3,0.5-0.5c-0.2,0-0.3,0-0.5,0.1v-0.3
			c0.4-0.1,0.8-0.1,1.1-0.1c0.1,0,0.2,0,0.2,0.1c0,0,0.1,0,0.1,0.1c0,0-0.1,0.1-0.2,0.2c-0.5,0.3-0.9,0.8-1.2,1.3V18.4L69.7,18.4z
			 M107.7,25.8v0.4c-0.4,0.3-0.8,0.6-1.2,1.2c-0.3,0.4-0.6,0.9-0.7,1.2c-0.2,0.4-0.3,0.7-0.3,1c0,0.3,0.1,0.6,0.2,0.7
			c0.2,0.1,0.5,0.2,0.9,0.2c0.5,0,0.8-0.1,1.1-0.2l0,0V31c-0.1,0.1-0.3,0.2-0.4,0.3c-0.4,0.3-0.9,0.4-1.3,0.4c-0.6,0-1-0.2-1.2-0.4
			c-0.3-0.3-0.4-0.7-0.4-1.2c0-0.6,0.2-1.1,0.4-1.7c0.3-0.5,0.7-1,1.3-1.6C106.6,26.3,107.1,26,107.7,25.8L107.7,25.8L107.7,25.8z
			 M69.7,30.8v-3.6c0.1-0.7,0.2-1.4,0.2-2.1v-0.3c0.4,0.2,0.6,0.4,0.8,0.7c0.2,0.3,0.3,0.7,0.3,1.2c0,0.1,0,0.3,0,0.6
			c0,0,0,0.1,0,0.1c0.7-0.7,1.3-1.3,1.8-1.6c0.5-0.3,1-0.5,1.5-0.5c0.5,0,0.8,0.1,1,0.3c0.3,0.2,0.3,0.5,0.3,0.9
			c0,0.5-0.2,1-0.6,1.6c-0.4,0.6-1.1,1.4-2.1,2.2h1.8c0.6,0,1.2-0.2,1.7-0.6c0.1-0.1,0.2-0.1,0.2-0.1c0,0,0.1,0,0.1,0
			c0,0,0,0.1,0,0.1c0,0.3-0.3,0.6-0.9,1.1c-0.6,0.4-1.3,0.6-2,0.6h-2.1c0.9-1.1,1.5-2.1,1.9-2.8c0.4-0.8,0.7-1.4,0.7-1.7
			c0-0.3-0.1-0.5-0.2-0.6c-0.2-0.1-0.3-0.2-0.6-0.2c-0.5,0-1,0.2-1.5,0.6c-0.5,0.4-0.9,0.9-1.2,1.6c-0.3,0.7-0.6,1.2-0.8,1.7
			C69.8,30.4,69.7,30.7,69.7,30.8L69.7,30.8z M76.9,31.6c0.3-0.8,0.6-2.2,1.1-4.1c0.1-0.5,0.2-0.9,0.3-1.2h-0.6c-0.1,0-0.2,0-0.2,0
			c-0.1,0-0.1-0.1-0.1-0.1c0-0.3,0-0.4,0.1-0.5c0-0.1,0.2-0.2,0.4-0.2h0.6c0.3-1.1,0.6-2,0.9-2.7c0.3-0.7,0.6-1.3,1-1.8h0.4
			c0,0,0.1,0,0.1,0c0,0,0,0,0.1,0.1c0,0-0.1,0.1-0.1,0.3c-0.4,1.2-0.8,2.6-1.1,4.1h2.1c0.1,0,0.1,0,0.2,0.1c0,0,0.1,0,0.1,0.1
			c0,0.3,0,0.4-0.1,0.5c0,0.1-0.2,0.1-0.3,0.1h-2.1c-0.2,0.9-0.4,1.7-0.6,2.4c-0.3,0.7-0.6,1.3-1,1.9h2.1c0.7,0,1.3-0.2,1.7-0.7
			c0.1-0.1,0.2-0.1,0.2-0.1c0.1,0,0.1,0,0.2,0c0,0,0,0,0,0.1c0,0.3-0.3,0.6-0.9,1.1c-0.6,0.4-1.3,0.7-2.1,0.7H76.9L76.9,31.6z
			 M84.5,28.3c-0.4-0.1-0.6-0.2-0.8-0.3c-0.1-0.1-0.2-0.4-0.2-0.7c0-0.5,0.2-1,0.6-1.3c0.4-0.4,1-0.5,1.6-0.5c0.2,0,0.5,0,0.9,0
			c0.4,0,0.7,0,0.9,0h0.3c0.2,0,0.3,0,0.4,0.1c0.1,0,0.1,0.1,0.1,0.1c0,0.2-0.1,0.4-0.4,0.6c-0.3,0.2-0.6,0.4-0.8,0.4
			c-0.2,0-0.5-0.1-0.9-0.3c-0.4-0.2-0.7-0.3-0.9-0.3c-0.3,0-0.5,0.1-0.7,0.3c-0.2,0.2-0.3,0.3-0.3,0.6c0,0.2,0.1,0.3,0.3,0.4
			c0.2,0.1,0.6,0.3,1.1,0.3c0.2,0.1,0.5,0.1,0.8,0.1c0.3,0,0.4,0.1,0.4,0.2c0,0.2-0.1,0.4-0.3,0.5c-0.2,0.1-0.5,0.2-0.9,0.2
			c-0.1,0-0.2,0-0.3,0c-0.1,0-0.2,0-0.3-0.1c-0.5,0.3-0.9,0.5-1.1,0.7c-0.2,0.2-0.4,0.5-0.4,0.7c0,0.3,0.1,0.4,0.3,0.5
			c0.2,0.1,0.5,0.1,1,0.1h1.9c0.9,0,1.5-0.2,2-0.7c0.1-0.1,0.2-0.2,0.3-0.2c0,0,0.1,0,0.1,0c0,0,0,0.1,0,0.1c0,0.1,0,0.1,0,0.2
			c0,0,0,0.1-0.1,0.1l-0.5,0.5c-0.4,0.4-0.7,0.7-0.9,0.8c-0.3,0.1-0.7,0.2-1.3,0.2h-2.2c-0.6,0-1-0.1-1.3-0.3
			c-0.3-0.2-0.4-0.4-0.4-0.8c0-0.4,0.2-0.8,0.5-1.1C83.2,29,83.7,28.6,84.5,28.3L84.5,28.3z M90.3,26.6h-0.1c-0.2,0-0.3-0.1-0.4-0.2
			c-0.1-0.1-0.1-0.3-0.1-0.5c0-0.3,0.1-0.5,0.3-0.7c0.2-0.2,0.4-0.3,0.6-0.3c0.2,0,0.3,0.1,0.4,0.2c0.1,0.1,0.2,0.3,0.2,0.4h3.7
			c-0.9,0.8-1.6,1.5-1.9,2.2c-0.3,0.6-0.5,1.3-0.5,2.1c0,0.4,0.1,0.6,0.2,0.8c0.1,0.1,0.4,0.2,0.7,0.2c0.4,0,0.8-0.1,1.2-0.3
			c0.4-0.3,0.6-0.4,0.7-0.4c0,0,0.1,0,0.1,0c0,0,0,0.1,0,0.1c0,0.2-0.3,0.5-0.9,1c-0.6,0.5-1.2,0.7-1.7,0.7c-0.4,0-0.8-0.1-1-0.4
			c-0.2-0.3-0.3-0.7-0.3-1.2c0-0.6,0.1-1.1,0.4-1.6c0.3-0.5,0.8-1.2,1.6-2H91c-0.2,0.5-0.4,1-0.7,1.4c-0.2,0.4-0.4,0.6-0.6,0.6
			c0,0-0.1,0-0.1,0c0,0,0,0,0,0c0,0,0.1-0.3,0.3-0.6C90.2,27.4,90.3,27,90.3,26.6L90.3,26.6z M95.6,31.6c0.6-1.4,1-2.6,1.2-3.6
			c0.3-1,0.4-2,0.4-2.8v-0.3c0.3,0.2,0.6,0.4,0.7,0.7c0.2,0.3,0.3,0.7,0.3,1.2c0,0.1,0,0.3,0,0.6c0,0,0,0.1,0,0.1
			c0.7-0.7,1.3-1.3,1.8-1.6c0.5-0.3,1-0.5,1.5-0.5c0.5,0,0.8,0.1,1,0.3c0.3,0.2,0.3,0.5,0.3,0.9c0,0.5-0.2,1-0.6,1.6
			c-0.4,0.6-1.1,1.4-2,2.2h1.8c0.6,0,1.2-0.2,1.7-0.6c0.1-0.1,0.2-0.1,0.2-0.1c0,0,0.1,0,0.1,0c0,0,0.1,0.1,0.1,0.1
			c0,0.3-0.3,0.6-0.9,1.1c-0.6,0.4-1.3,0.6-2,0.6h-2.1c0.9-1.1,1.5-2.1,1.9-2.8c0.4-0.8,0.7-1.4,0.7-1.7c0-0.3-0.1-0.5-0.2-0.6
			c-0.2-0.1-0.3-0.2-0.6-0.2c-0.5,0-1,0.2-1.5,0.6c-0.5,0.4-0.9,0.9-1.2,1.6c-0.3,0.7-0.6,1.2-0.8,1.7c-0.2,0.5-0.3,0.8-0.4,0.9
			c-0.1,0.3-0.2,0.4-0.3,0.4c-0.1,0.1-0.3,0.1-0.5,0.1H95.6z M56.2,32c0.2-0.4,0.6-0.7,1.5-0.9c0.8-0.2,1.9-0.3,3.3-0.3
			c0.8,0,1.6,0,2.4,0.1c0.2,0,0.3,0,0.4,0c1.1,0,2-1.5,2.6-4.5c0.1-0.7,0.3-1.2,0.3-1.6c0.4-1.8,0.9-3.3,1.4-4.2
			c0.4-0.8,0.9-1.5,1.6-2.1v0.7c-0.3,0.4-0.5,1-0.7,1.6c-0.2,0.7-0.4,1.7-0.8,3c-0.6,2.6-1.2,4.4-1.8,5.4c-0.6,1-1.3,1.7-2,2.1
			c-0.7,0.4-1.7,0.7-3,0.7h-4.1c-0.2,0-0.4,0-0.6,0C56.7,31.9,56.5,31.9,56.2,32L56.2,32z M69.7,18v-0.3c-0.3,0-0.8,0.1-1.2,0.2
			c-1,0.2-1.9,0.5-2.8,0.9c-1.9,0.8-3.4,1.8-4.4,3.2c-1,1.3-1.5,2.9-1.5,4.7c0,0.7,0.1,1.3,0.2,1.7c0.1,0.4,0.3,0.6,0.5,0.6h0.1
			c-0.1-0.2-0.1-0.3-0.1-0.5c0-0.2-0.1-0.4-0.1-0.7c0-1.2,0.3-2.4,0.9-3.7c0.6-1.3,1.3-2.4,2.2-3.2c0.9-0.9,1.9-1.5,3-2
			C67.5,18.4,68.5,18.1,69.7,18L69.7,18z M69.7,27.2c-0.1,0.3-0.1,0.5-0.2,0.8c-0.2,1-0.6,2.2-1.2,3.6h0.5c0.3,0,0.4,0,0.5-0.1
			c0.1,0,0.2-0.2,0.3-0.4c0,0,0-0.1,0.1-0.2V27.2z"/>
		<path class="st3" d="M165.3,48.7V46c0.2,0,0.4,0.1,0.7,0.1c0.9,0,1.7-0.6,2.4-1.9l-2-11.2h3.8l0.8,7.5h0l3.9-7.5h3.7l-7.4,12.5
			c-0.7,1.2-1.3,2-1.8,2.4c-0.7,0.5-1.6,0.8-2.8,0.8C166.1,48.7,165.6,48.7,165.3,48.7L165.3,48.7z M165.3,35.6h0.3l0.5-2.5h-0.8
			V35.6z M165.3,33.1v2.5h-1.9l-1.2,5.6c0,0.2-0.1,0.3-0.1,0.5c0,0.3,0.3,0.5,1,0.5c0.4,0,0.8,0,1.1-0.1l-0.5,2.4
			c-1.1,0.1-1.9,0.2-2.6,0.2c-1,0-1.7-0.1-2.1-0.3c-0.5-0.3-0.7-0.7-0.7-1.4c0-0.3,0-0.7,0.2-1.2l1.3-6.2h-1.9v-0.3l0.5-2.2h1.9
			l0.8-3.5h3.6l-0.8,3.5H165.3L165.3,33.1z M165.3,46v2.6c-0.4,0-0.6-0.1-0.9-0.2L165,46C165.1,46,165.2,46,165.3,46L165.3,46z
			 M157.9,29.3V29h0.1L157.9,29.3z M157.9,29v0.3l-0.5,2.4h-3.6l0.5-2.7H157.9L157.9,29z M157.9,35.3v0.3h-0.1L157.9,35.3
			L157.9,35.3z M139,43.6v-2.7h3.3c-0.1,1.1,0.5,1.7,1.8,1.7c0.7,0,1.2-0.2,1.6-0.5c0.3-0.3,0.5-0.6,0.5-1c0-0.3-0.2-0.5-0.6-0.7
			c-0.2-0.1-0.8-0.2-1.8-0.4c-1.6-0.3-2.6-0.6-3.1-0.9c-0.8-0.4-1.2-1-1.2-1.9c0-0.3,0-0.5,0.1-0.9c0.5-2.4,2.6-3.6,6.3-3.6
			c1.6,0,2.8,0.3,3.6,0.9c0.8,0.5,1.2,1.2,1.2,2.1c0,0.3,0,0.5-0.1,0.7H147c0-0.1,0-0.3,0-0.4c0-0.7-0.6-1-1.6-1
			c-1.2,0-1.9,0.3-2.1,1c-0.1,0.7,0.9,1.2,3.1,1.5c1.3,0.2,2.2,0.4,2.7,0.7c0.8,0.4,1.1,1.1,1.1,1.9c0,0.3,0,0.6-0.1,0.9
			c-0.5,2.5-2.7,3.8-6.6,3.8C141.3,44.9,139.7,44.5,139,43.6L139,43.6z M139,35.8l0.6-2.9c-0.2,0-0.4-0.1-0.6-0.1V35.8L139,35.8z
			 M154.6,44.5H151l2.4-11.5h3.6L154.6,44.5z M139,32.8v3l-0.1,0.5c-0.5-0.1-1-0.2-1.4-0.2c-1,0-1.8,0.3-2.5,0.8
			c-0.7,0.5-1.1,1.3-1.3,2.1l-1.2,5.5h-3.6l2.5-11.5h3.6l-0.5,2.1h0c1.2-1.6,2.5-2.4,4-2.4C138.7,32.8,138.8,32.8,139,32.8L139,32.8
			z M139,40.9h-0.5c-0.1,0.3-0.1,0.7-0.1,1c0,0.7,0.2,1.3,0.6,1.7V40.9L139,40.9z M122.8,44.8v-2.3c0.8-0.3,1.3-0.8,1.6-1.7h3.6
			c-0.3,1.1-1,2-2.1,2.8C125.1,44.2,124,44.6,122.8,44.8L122.8,44.8z M122.8,39.6v-2.1h2.5c0-0.2,0.1-0.4,0.1-0.7
			c0-1.2-0.7-1.9-2-1.9c-0.2,0-0.3,0-0.5,0v-2.2c0.3,0,0.6-0.1,0.9-0.1c3.4,0,5.1,1.5,5.1,4.4c0,0.8-0.1,1.6-0.3,2.5H122.8z
			 M122.8,32.8V35c-1.3,0.2-2.1,1-2.5,2.5h2.5v2.1h-3c-0.1,0.4-0.1,0.8-0.1,1.1c0,1.3,0.7,1.9,2.1,1.9c0.4,0,0.7,0,1-0.1v2.3
			c-0.4,0.1-1,0.1-1.5,0.1c-2.5,0-4.1-0.7-4.8-2.2v-4.8c0.4-1.4,1.2-2.6,2.2-3.4C119.8,33.5,121.2,32.9,122.8,32.8L122.8,32.8z
			 M116.5,33.8l0.4-0.7h-0.4V33.8z M84.2,29.3h0.5l-0.5,2.4V29.3L84.2,29.3z M116.5,33.1v0.7l-6.1,10.7h-4.2l-1.7-11.5h4l0.4,8.3
			h0.1l4-8.3H116.5L116.5,33.1z M116.5,37.8c-0.1,0.3-0.2,0.6-0.2,0.9c-0.1,0.7-0.2,1.3-0.2,1.9c0,0.8,0.1,1.5,0.4,2.1V37.8
			L116.5,37.8z M84.2,44.5v-2.3l2-9.1h3.6l-0.3,1.5h0c0.9-1.2,2.3-1.8,4.1-1.8c1,0,1.8,0.2,2.3,0.7c0.6,0.4,0.9,1.1,0.9,2
			c0,0.3,0,0.6-0.1,0.9L95,44.5h-3.6l1.5-7.1c0-0.2,0.1-0.4,0.1-0.6c0-0.9-0.5-1.3-1.4-1.3c-0.7,0-1.2,0.2-1.7,0.5
			c-0.5,0.4-0.9,1-1,1.7l-1.5,6.8H84.2L84.2,44.5z M103.7,31.7H100l0.6-2.7h3.6L103.7,31.7L103.7,31.7z M100.9,44.5h-3.6l2.4-11.5
			h3.6L100.9,44.5z M82.6,39.1c-0.4,2.1-1.3,3.5-2.6,4.5c-1.3,0.9-3.1,1.4-5.4,1.4c-2,0-3.5-0.3-4.4-0.9c-0.9-0.6-1.4-1.6-1.4-3
			c0-0.5,0.1-1.2,0.2-1.9l2.1-9.9h4l-2.2,10.1c-0.1,0.3-0.1,0.6-0.1,0.9c0,1.3,0.8,2,2.4,2c1.8,0,3-0.9,3.4-2.8l2.1-10.1h3.5v2.4
			L82.6,39.1L82.6,39.1z M84.2,42.2l-0.5,2.3h0.5V42.2z"/>
	</g>
	<g>
		<g>
			<path class="st4" d="M42.1,25.7C40,18,41.3,12.5,44.1,8.4l-5-5.2H11.9l-4.8,5c4.3,8.9,1.2,14.6,1.1,17.2l0,0c-3-2.9-4.7-1.2-5,0
				l0,0c-1.1,3.6-2,4.9-2,4.9C1.8,31.8,2.5,32,2.8,32l0,0c0.1,6.9,6.2,10.5,13,12.8c6.9,2.4,9.1,5.3,9.1,5.3S29,46,36,44.2
				C43.1,41.6,47.4,36.7,47,32l0,0c1.4,0,1.6-0.4,2-1.8c0,0-1-0.7-1.9-4.1l0,0c0-0.5-0.2-1.1-0.6-1.8C44.6,22.3,42.2,25.5,42.1,25.7
				L42.1,25.7z"/>
			<path class="st3" d="M4.9,27.2c0.1-0.1,1-1.6,1.1-0.3c0.1,1.2-2.1,0.3-2.3-1.3c-0.1-0.9,3.6-2.8,4.1,2.7l0,0
				c0.3,7.6,8.7,9.8,12.3,11.3c4.3,2.4,4.7,3.3,4.7,3.3s1.9-2,4.8-3.1c7.3-2.6,12.8-5.1,12.7-11.7c0.3-4.6,5.5-4.8,3.3-1.1
				c-0.6,1.1-3.2,1.4-1.2-0.7l0.7,1.3c0.1,0,0.3-0.1,0.4-0.3c0,0-0.8-1.9-0.9-1.9c-0.7,0.2-1.3,1.1-1.2,2c0.1,1.8,3.2,4.5,3,6
				C45.1,40.9,34,44.2,34,44.2c-5.1,1.4-9,5.1-9,5.1c-2.3-3.2-10.6-5.6-10.6-5.6C4.1,39.5,3.4,34,3.6,32.3c0.1-1.3,2.5-3.4,2.5-3.4
				c0.6-0.7,0.8-2.9-0.5-3.4c-0.1,0-1,1.5-1,1.5C4.7,27,4.9,27.2,4.9,27.2z"/>
			<path class="st1" d="M8.9,28.7c0.3,5.7,5.7,7.6,11,9.4c3.3,1.2,5,3.1,5,3.1c2.3-1.9,3.4-2.4,5.3-3C36,36.2,42.4,34.1,41,25.9
				c-3-12.3,1.9-17.2,1.9-17.2l-4.5-4.5H12.2L8.3,8.5c3.6,7.6,1.6,13.8,1.1,16.9C8.8,28.1,9,26.8,8.9,29V28.7z"/>
			<polygon class="st5" points="25.1,6.7 25.3,6.1 24.7,5.8 25.4,5.8 25.6,5.2 25.8,5.8 26.4,5.8 25.9,6.1 26.1,6.7 25.6,6.4 			"/>
			<path class="st5" d="M25.2,13.5c4.2,0,7.6,3.4,7.6,7.5c0,4.1-3.4,7.4-7.6,7.4c-4.2,0-7.6-3.3-7.6-7.4
				C17.6,16.8,21,13.5,25.2,13.5z"/>
			<path class="st6" d="M17.6,21c0,4.1,3.4,7.4,7.6,7.4c4.2,0,7.6-3.3,7.6-7.4c0-4.1-3.4-7.5-7.6-7.5C21,13.5,17.6,16.8,17.6,21z
				 M17.7,21c0-4.1,3.4-7.5,7.5-7.5c4.2,0,7.6,3.4,7.6,7.5c0,4.1-3.4,7.4-7.6,7.4C21,28.4,17.7,25,17.7,21z"/>
			<path class="st7" d="M25.1,13.9c4,0,7.1,3.1,7.1,7c0,3.9-3.2,7-7.1,7c-3.9,0-7.1-3.1-7.1-7C18,17,21.2,13.9,25.1,13.9z"/>
			<path class="st8" d="M17.8,21c0,4,3.3,7.2,7.3,7.2c4.1,0,7.3-3.2,7.3-7.2c0-4-3.2-7.2-7.3-7.2C21.1,13.7,17.8,17,17.8,21z
				 M18.2,21c0-3.8,3.1-6.8,6.9-6.8c3.9,0,6.9,3,6.9,6.8c0,3.8-3,6.8-6.9,6.8C21.3,27.8,18.2,24.7,18.2,21z"/>
			<path class="st8" d="M23.1,27.5C23,27.5,23,27.6,23,27.7c0.1,0.1,0.2,0.1,0.3,0.1c1.8-1,2.1-0.9,3.9,0c0.1,0.1,0.2,0,0.3-0.1
				c0-0.1,0-0.2-0.1-0.3C25.5,26.5,25,26.3,23.1,27.5z"/>
			<path class="st8" d="M18,20.8c-0.1,0-0.2,0.1-0.2,0.2c0,0.1,0.1,0.2,0.2,0.2h14.3c0.1,0,0.2-0.1,0.2-0.2c0-0.1-0.1-0.2-0.2-0.2
				H18z"/>
			<path class="st8" d="M27.4,14.2c-1.6,1.1-2.5,1.2-4.2,0c-0.1-0.1-0.2,0-0.3,0c-0.1,0.1,0,0.2,0,0.3c1.9,1.4,3,1.1,4.6,0
				c0.1-0.1,0.1-0.2,0.1-0.3C27.6,14.1,27.4,14.1,27.4,14.2z"/>
			<path class="st8" d="M20.9,15.1c-0.1,0.1,0,0.2,0.1,0.3c3,1.9,5.3,2.5,8.5,0.1c0.1-0.1,0.1-0.2,0-0.3c-0.1-0.1-0.2-0.1-0.3,0
				c-3.1,2.3-5.2,1.8-8.1-0.1C21.1,15,21,15,20.9,15.1z"/>
			<path class="st8" d="M19.5,16.3c-0.1,0.1,0,0.2,0,0.3c5.1,3.6,8.1,1.9,10.4,0.6l0.7-0.4c0.1-0.1,0.1-0.2,0.1-0.3
				c-0.1-0.1-0.2-0.1-0.3-0.1l-0.7,0.4c-2.4,1.4-5,2.9-10-0.5C19.7,16.1,19.6,16.2,19.5,16.3z"/>
			<path class="st8" d="M18.7,23.5c-0.1,0.1-0.1,0.2-0.1,0.3c0.1,0.1,0.2,0.1,0.3,0.1c1.1-0.6,6.7-3.4,12.8,0c0.1,0.1,0.2,0,0.3-0.1
				c0.1-0.1,0-0.2-0.1-0.3C25.6,20,19.8,22.9,18.7,23.5z"/>
			<path class="st8" d="M19.6,25.4c-0.1,0-0.1,0.2-0.1,0.3c0,0.1,0.2,0.1,0.3,0.1c5.4-2.5,5.8-2.3,10.4-0.3l0.3,0.1
				c0.1,0,0.2,0,0.3-0.1c0-0.1,0-0.2-0.1-0.3l-0.3-0.1C25.7,23,25.2,22.8,19.6,25.4z"/>
			<path class="st8" d="M27.2,14.7c1.9,1.1,3.9,3.7,3.9,6.6c0,2.4-1.4,4.5-4.2,6.1l0.2,0.3c3.6-2.1,4.4-4.6,4.4-6.4
				c0-3-2.1-5.8-4.1-7L27.2,14.7z"/>
			<path class="st8" d="M26.5,15c1.7,1.6,2.7,3.7,2.7,5.9c0,2.3-1,4.5-2.7,6.2l0.3,0.3c1.8-1.8,2.9-4.1,2.8-6.5c0-2.3-1-4.5-2.8-6.2
				L26.5,15z"/>
			<path class="st8" d="M26,15.1c2.4,3.6,1.9,9.4-0.1,11.8l0.3,0.3c2.2-2.5,2.7-8.4,0.2-12.3L26,15.1z"/>
			<path class="st8" d="M24.4,27.1l0.3-0.2c-1.1-1.7-3.5-6.3-0.3-11.8l-0.3-0.2C20.8,20.7,23.2,25.4,24.4,27.1z"/>
			<path class="st8" d="M23.8,27.4l0.3-0.3c-3.7-3.9-3.7-8.3-0.1-12.1l-0.3-0.3C19.9,18.7,20,23.3,23.8,27.4z"/>
			<path class="st8" d="M19.1,21c-0.1,1.9,0.6,4.5,4.2,6.7l0.2-0.3c-2.7-1.6-4.1-3.8-4-6.3c0.1-3,2.4-5.6,3.9-6.4l-0.2-0.4
				C21.4,15.2,19.2,18,19.1,21z"/>
			<path class="st9" d="M25.2,25v1.9V25z"/>
			<rect x="25" y="25" class="st8" width="0.3" height="1.9"/>
			<path class="st8" d="M25,20.3v6c0,0.1,0.1,0.2,0.2,0.2c0.1,0,0.2-0.1,0.2-0.2v-6c0-0.1-0.1-0.2-0.2-0.2
				C25.1,20.1,25,20.2,25,20.3z"/>
			<path class="st5" d="M32.5,23.4c6.3,3.6,5.1,5.5-8-2.4c-6-3.6-16.2-10.4-4.9-4.9l0.2-0.3C7,10,18.5,17.7,24.1,21.2
				C38.3,30,39.6,27,32.6,23L32.5,23.4z"/>
			<path class="st5" d="M31,16.1c7.4-4.3,7.8-1.8-5.7,5.5c-6.2,3.3-17.6,8.8-7.1,2L18,23.2c-11.4,8,1.5,1.8,7.3-1.3
				c14.8-7.8,13.2-10.7,5.4-6.1L31,16.1z"/>
			<g>
				<polygon class="st6" points="21.6,19.8 21.1,19.8 19,23.9 19,23.9 22.5,23.9 24.5,23.9 24.6,24 24.5,24.1 24.6,24.1 25.7,24.1 
					25.8,24.1 25.7,23.9 29.2,23.9 31.4,23.9 31.4,23.9 31.4,23.8 29.2,19.8 27.6,19.8 21.6,19.8 				"/>
				<path class="st6" d="M27.6,19.7h-6.5l-0.1,0l-2.1,4.1l0,0.1L19,24h5.6l0,0.1l0.1,0.1l1.2,0l0.1-0.1l0-0.1c0,0,0,0,0,0
					c0.2,0,5.5,0,5.5,0l0.1-0.1v-0.1l-0.1-0.1l-2.1-4l-0.1,0H27.6z M21.6,19.9c0,0,7.5,0,7.6,0c0,0.1,2.1,4,2.1,4s0,0,0,0
					c0,0,0,0,0,0l-2.1,0h-3.5L25.7,24c0,0,0,0.1,0,0.1c0,0,0,0,0,0l-1.1,0l0-0.1l-0.1-0.1l-2,0c0,0-3.4,0-3.5,0v0c0,0,2.1-3.9,2.1-4
					C21.2,19.9,21.6,19.9,21.6,19.9z"/>
				<polygon class="st6" points="19,23.9 19,24 19,24 19,24.1 24.5,24.1 24.6,24.1 24.5,24.1 24.4,24.1 24.4,24.1 24.4,24.2 
					24.5,24.2 24.6,24.3 25.7,24.3 25.7,24.3 25.8,24.2 25.9,24.2 25.9,24.2 25.9,24.1 25.8,24.1 25.8,24.1 25.8,24.1 31.4,24.1 
					31.4,24 31.4,24 31.4,24 31.4,23.9 31.4,23.9 31.4,23.9 25.7,23.9 25.7,23.9 25.7,24 25.7,24 25.7,24.1 25.7,24.1 25.7,24.1 
					24.7,24.1 24.7,24.1 24.6,24.1 24.7,24 24.7,24 24.7,23.9 24.6,23.9 24.6,23.9 19.1,23.9 19,23.9 19,23.9 19,23.9 				"/>
				<path class="st6" d="M31.3,23.9l-5.7,0l-0.1,0.1c0,0,0,0.1,0,0.1c-0.1,0-0.8,0-0.9,0c0,0,0-0.1,0-0.1l-0.1-0.1H19v0c0,0,0,0,0,0
					c0,0-0.1,0-0.1,0V24l0.1,0.1c0,0,5.2,0,5.4,0l0,0v0.1l0.1,0.1h0.1l0.1,0.1h1.2l0.1-0.1l0.1,0v-0.1l0,0c0.2,0,5.4,0,5.4,0
					l0.1-0.1v0c0,0,0,0,0,0l0.1-0.1v-0.1L31.3,23.9L31.3,23.9z M19,24C19.1,24,19.1,24,19,24c0.1,0,5.6,0,5.6,0v0l-0.1,0l0,0.1h1
					l0.1-0.1V24c0,0,5.5,0,5.6,0l0,0c0,0,0,0,0,0c-0.1,0-5.5,0-5.5,0l-0.1,0.1v0.1c0,0,0,0,0,0c0,0-0.1,0.1-0.1,0.1l-1.1,0
					c0,0,0,0,0,0c0,0,0.1-0.1,0.1-0.1l0-0.1L19,24C19,24,19,24,19,24z"/>
				<polygon class="st5" points="21.7,19.6 21.3,19.8 19.4,23.7 20.3,23.7 21.1,23.6 22.1,23.5 23.1,23.3 23.6,23.2 24,23.3 
					24.4,23.4 24.6,23.6 24.7,23.9 24.8,24 25.6,24 25.6,24 25.7,23.7 25.8,23.4 26.1,23.2 26.4,23.1 26.8,23.1 27.4,23.2 28,23.4 
					29.1,23.6 30.1,23.7 30.9,23.7 29,19.9 28.6,19.6 25.3,21.6 21.7,19.6 				"/>
				<path class="st6" d="M21.3,19.8l-1.9,3.9l0.1,0.1h0.9l0.8-0.1l1-0.1l1-0.2l0.5-0.1l0.3,0.1l0.4,0.1l0.2,0.2l0.1,0.3l0.1,0.1
					l0.1,0h0.8l0.1,0l0.1-0.3l0.1-0.3l0.3-0.2l0.3-0.1l0.4,0l0.5,0.1l0.6,0.2l1.1,0.2l1,0.1h0.8l0.1-0.1l-1.9-3.8l-0.4-0.3l-0.1,0
					c0,0-3.3,2-3.3,2c-0.1,0-3.5-2-3.5-2l-0.1,0L21.3,19.8z M21.3,19.8c0,0,0.3-0.1,0.4-0.2c0.1,0,3.5,2,3.5,2l0.1,0
					c0,0,3.3-2,3.3-2c0.1,0,0.4,0.2,0.4,0.2s1.7,3.5,1.8,3.7c-0.2,0-0.7,0-0.7,0l-1-0.1L28,23.3l-0.6-0.2l-0.6-0.1h-0.4l-0.4,0.1
					l-0.3,0.2l-0.2,0.3c0,0,0,0.2-0.1,0.3c-0.1,0-0.7,0-0.7,0c0,0-0.2-0.4-0.2-0.4l-0.2-0.2L24,23.2l-0.3-0.1l-0.6,0.1l-1,0.2
					l-1,0.1l-0.8,0.1c0,0-0.6,0-0.8,0C19.6,23.4,21.3,19.8,21.3,19.8z"/>
				<rect x="25.1" y="19.6" class="st6" width="0.1" height="3.9"/>
				
					<rect x="19.4" y="23.4" transform="matrix(0.8606 -0.5093 0.5093 0.8606 -9.1893 13.342)" class="st6" width="0.8" height="0.1"/>
				<polygon class="st6" points="30.2,23.4 30.9,23.7 30.9,23.6 30.3,23.3 				"/>
				<polygon class="st6" points="21.6,19.6 20,23.3 20.6,23.3 21.4,23.1 22.2,23 23,22.8 23.5,22.7 23.8,22.7 24.2,22.8 24.5,22.9 
					24.8,23 24.9,23.2 25.1,23.4 25.2,23.6 25.3,23.4 25.5,23.1 25.7,22.9 26,22.8 26.4,22.7 26.7,22.7 27,22.7 27.7,22.8 
					28.8,23.1 29.7,23.3 30.2,23.3 30.3,23.4 28.7,19.7 28.2,19.6 27.7,19.6 27.3,19.5 27,19.4 26.6,19.3 26.4,19.2 26.1,19.2 
					25.8,19.2 25.6,19.2 25.5,19.3 25.4,19.4 25.3,19.5 25.2,19.6 25.2,19.6 25.1,19.5 25.1,19.4 24.9,19.3 24.9,19.3 24.6,19.2 
					24.4,19.1 24,19.1 23.7,19.3 23.3,19.3 23.1,19.4 22.8,19.5 22.5,19.5 22,19.6 21.8,19.6 21.6,19.6 				"/>
				<path class="st6" d="M23.7,19.2l-0.3,0.1l-0.3,0.1l-0.3,0.1l-0.3,0.1L22,19.5l-0.4,0l-0.1,0L20,23.3l0.1,0.1l0.5-0.1l0.8-0.1
					l0.8-0.1l0.8-0.2l0.5-0.1h0.3l0.3,0.1l0.3,0.1l0.3,0.1l0.1,0.1l0.1,0.2l0.1,0.2l0.1,0l0.1-0.2l0.2-0.3l0.2-0.2l0.3-0.1l0.3-0.1
					l0.7,0l0.7,0.1l1,0.3l0.9,0.1l0.6,0.1l0.1,0.1l0.1-0.1l-1.6-3.7l0,0l-0.5-0.1l-0.5,0l-0.5-0.1L27,19.3l-0.3-0.1l-0.3-0.1l-0.3,0
					h-0.5l-0.2,0.1l-0.1,0.2l-0.1,0c0,0,0,0-0.1,0.1c0,0,0,0,0,0l-0.1-0.1L25,19.3l-0.1-0.1l-0.2-0.1l-0.2-0.1l-0.4,0L23.7,19.2z
					 M21.8,19.7H22l0.4-0.1l0.3-0.1l0.3-0.1l0.3-0.1l0.3-0.1l0.4-0.1l0.4,0l0.2,0.1l0.2,0.1l0,0.1l0.2,0.1l0,0.1l0.1,0.1l0.1,0
					l0.1-0.1l0.1,0l0.1-0.2l0.1,0l0.2,0h0.5l0.3,0.1l0.3,0.1l0.3,0.1l0.5,0.1l0.5,0c0,0,0.4,0.1,0.4,0.1c0,0.1,1.4,3.3,1.6,3.5
					c0,0-0.6-0.1-0.6-0.1l-0.9-0.1l-1-0.3l-0.7-0.1l-0.7,0L26,22.7l-0.4,0.1l-0.2,0.2l-0.2,0.3c0,0,0,0.1,0,0.1
					c0-0.1-0.1-0.1-0.1-0.1L25,23.2L24.8,23l-0.3-0.1l-0.3-0.1l-0.4-0.1l-0.4,0L23,22.7l-0.8,0.2l-0.8,0.1l-0.8,0.1
					c0,0-0.3,0-0.4,0.1C20.2,23.1,21.6,19.7,21.8,19.7C21.7,19.7,21.8,19.7,21.8,19.7z"/>
				<polygon class="st10" points="21.7,19.6 20,23.3 20.7,23.2 21.5,23 22.2,22.9 23,22.7 23.6,22.6 23.8,22.6 24.2,22.7 24.5,22.8 
					24.8,23 24.9,23.1 25.1,23.3 25.2,23.5 25.3,23.3 25.5,23 25.7,22.8 26,22.7 26.4,22.6 26.7,22.6 27,22.6 27.7,22.8 28.8,23 
					29.6,23.2 30.1,23.3 30.3,23.3 28.7,19.6 28.1,19.6 27.7,19.5 27.3,19.4 27,19.3 26.6,19.2 26.4,19.2 26.1,19.1 25.8,19.1 
					25.6,19.2 25.5,19.3 25.4,19.3 25.3,19.5 25.2,19.5 25.2,19.6 25.1,19.5 25.1,19.3 25,19.3 24.9,19.2 24.6,19.1 24.5,19.1 
					24,19.1 23.7,19.2 23.3,19.3 23.1,19.4 22.9,19.5 22.5,19.5 22,19.5 21.8,19.6 21.7,19.6 				"/>
				<path class="st6" d="M25.6,19.1l-0.1,0.1l-0.1,0.1c0,0-0.2,0.1-0.2,0.2c0,0-0.1-0.1-0.1-0.1L25,19.2l-0.2-0.1l-0.2-0.1l-0.2,0
					H24l-0.4,0.1l-0.4,0.1l-0.3,0.1l-0.2,0.1l-0.3,0L22,19.5l-0.3,0.1l-0.1,0L20,23.2l0.1,0.1l0.6-0.1l0.8-0.1l0.8-0.1l0.8-0.2
					l0.5-0.1h0.3l0.4,0.1l0.3,0.1l0.3,0.1l0.3,0.3l0.1,0.3l0.1,0l0.1-0.2l0.2-0.3l0.2-0.2l0.3-0.1l0.4-0.1H27l0.7,0.1l1.1,0.3
					l0.8,0.1l0.6,0.1l0.1,0.1l0.1-0.1l-1.6-3.7l-0.1,0h-0.6l-0.5-0.1l-0.4-0.1L27,19.3l-0.3-0.1l-0.3,0l-0.3-0.1l-0.3,0L25.6,19.1z
					 M25.3,19.6L25.3,19.6L25.3,19.6l0.3-0.3l0.1-0.1l0.2-0.1l0.3,0l0.3,0.1l0.3,0l0.3,0.1l0.3,0.1l0.4,0.1l0.5,0.1c0,0,0.4,0,0.5,0
					c0,0.1,1.4,3.3,1.5,3.5c0,0-0.6-0.1-0.6-0.1L28.8,23l-1.1-0.3L27,22.6l-0.6,0l-0.4,0.1l-0.3,0.1L25.4,23l-0.2,0.3c0,0,0,0,0,0.1
					c0-0.1-0.1-0.1-0.1-0.1L25,23.1l-0.1-0.1l-0.3-0.1l-0.3-0.1l-0.4-0.1l-0.3,0L23,22.6l-0.8,0.2L21.5,23l-0.8,0.1
					c0,0-0.4,0-0.5,0.1c0.1-0.2,1.6-3.4,1.6-3.5c0,0,0,0,0,0l0.3-0.1l0.5-0.1l0.3,0l0.2-0.1l0.3-0.1l0.4-0.1l0.3-0.1l0.6,0l0.2,0.1
					l0.1,0.1l0.1,0.1l0.1,0.1l0.1,0.1L25.3,19.6z"/>
				<rect x="25.1" y="19.6" class="st6" width="0.1" height="3.9"/>
			</g>
			<path class="st5" d="M36.9,9.5V9.3l0,0c0.1,0,0.1,0,0.1-0.1c0.1,0,0.1-0.1,0.1-0.1h0.3c0,0.1,0,0.1-0.1,0.2
				C37.3,9.5,37.1,9.5,36.9,9.5L36.9,9.5L36.9,9.5z M36.9,9V8.8h0.2c0-0.1,0-0.1,0-0.1c-0.1-0.1-0.1-0.1-0.2-0.1l0,0V8.3
				c0.2,0,0.3,0.1,0.5,0.2c0.1,0.1,0.1,0.3,0.1,0.5H36.9L36.9,9z M38.4,8.7c-0.1,0-0.1,0-0.1,0c-0.1,0-0.1,0-0.2,0.1
				C38,8.8,38,8.9,38,8.9v0.5h-0.3V8.4H38v0.2l0,0c0.1-0.1,0.2-0.3,0.3-0.3c0,0,0.1,0,0.1,0.1V8.7L38.4,8.7z M39.6,9.2
				c0,0.2-0.2,0.3-0.5,0.3c-0.3,0-0.6-0.1-0.6-0.3h0.3c0,0.1,0.1,0.1,0.2,0.1c0.1,0,0.2-0.1,0.2-0.1l-0.1-0.1c-0.1,0-0.1,0-0.2-0.1
				c-0.2,0-0.3-0.1-0.3-0.1c-0.1-0.1-0.1-0.1-0.1-0.3c0-0.1,0.1-0.1,0.1-0.2c0.1-0.1,0.2-0.1,0.4-0.1c0.1,0,0.3,0.1,0.4,0.1
				c0.1,0.1,0.1,0.1,0.1,0.2h-0.3c0-0.1-0.1-0.1-0.1-0.1c-0.1,0-0.2,0-0.2,0.1c0,0.1,0.1,0.1,0.3,0.1c0.1,0,0.2,0.1,0.3,0.1
				C39.5,8.9,39.6,9,39.6,9.2L39.6,9.2z M40.1,8.3h-0.3V8h0.3V8.3L40.1,8.3z M40.1,9.5h-0.3V8.4h0.3V9.5L40.1,9.5z M41,9.5
				c-0.1,0-0.2,0-0.3,0c-0.1,0-0.2,0-0.2-0.1c-0.1,0-0.1-0.1-0.1-0.2V8.6h-0.2V8.4h0.2V8.1h0.3v0.3H41v0.2h-0.2v0.5
				c0,0.1,0,0.1,0,0.1h0.1c0.1,0,0.1,0,0.1,0V9.5L41,9.5z M42.2,8.4l-0.4,1.1c-0.1,0.1-0.1,0.2-0.1,0.2c-0.1,0.1-0.1,0.1-0.3,0.1
				c-0.1,0-0.1,0-0.2,0V9.6c0,0,0.1,0,0.1,0c0.1,0,0.1-0.1,0.1-0.2l-0.4-1h0.4l0.2,0.7l0,0l0.2-0.7H42.2z M36.9,8.3v0.2
				c-0.1,0-0.2,0.1-0.2,0.3h0.2V9h-0.2c0,0.2,0.1,0.3,0.2,0.3v0.2c-0.4,0-0.6-0.2-0.6-0.5c0-0.2,0.1-0.3,0.1-0.4
				C36.6,8.4,36.7,8.3,36.9,8.3L36.9,8.3L36.9,8.3z M29.9,9.5V9.3c0.1,0,0.1,0,0.1-0.1c0.1,0,0.1-0.1,0.1-0.1V8.9c0,0-0.1,0-0.1,0
				c0,0,0,0.1-0.1,0.1V8.8c0.1,0,0.1,0,0.1,0c0.1,0,0.1,0,0.1-0.1c0,0,0,0,0-0.1c0-0.1-0.1-0.1-0.1-0.1c-0.1,0-0.1,0-0.1,0V8.3H30
				c0.1,0,0.3,0.1,0.4,0.1c0.1,0,0.1,0.1,0.1,0.3v0.5c0,0.1,0,0.1,0.1,0.1c0,0,0,0.1,0,0c0,0.1,0,0.1,0,0.1c0,0-0.1,0-0.1,0
				c-0.1,0-0.1,0-0.2,0c0,0-0.1-0.1-0.1-0.1l0,0l0,0C30.1,9.4,30,9.5,29.9,9.5L29.9,9.5z M31.1,9.5h-0.4V8h0.4V9.5L31.1,9.5z
				 M33.2,8.9c0,0.2-0.1,0.3-0.1,0.4c-0.1,0.1-0.3,0.1-0.5,0.1c-0.2,0-0.3,0-0.5-0.1c-0.1-0.1-0.1-0.2-0.1-0.4V8.1h0.3V9
				c0,0.1,0.1,0.2,0.3,0.2c0.2,0,0.3-0.1,0.3-0.2V8.1h0.4V8.9L33.2,8.9z M34.5,9.5h-0.3V8.8c0-0.1-0.1-0.2-0.2-0.2
				c-0.1,0-0.1,0-0.1,0.1c-0.1,0.1-0.1,0.1-0.1,0.1v0.7h-0.3V8.4h0.3v0.1l0,0c0.1-0.1,0.2-0.2,0.3-0.2c0.1,0,0.2,0.1,0.3,0.1
				c0.1,0,0.1,0.1,0.1,0.2V9.5L34.5,9.5z M35,8.3h-0.3V8H35V8.3L35,8.3z M35,9.5h-0.3V8.4H35V9.5L35,9.5z M36.3,8.4l-0.4,1.1h-0.4
				l-0.4-1.1h0.4l0.2,0.7l0,0l0.2-0.7H36.3z M29.9,8.3v0.2c-0.1,0.1-0.2,0.1-0.2,0.2h-0.3c0-0.1,0-0.2,0.1-0.3
				C29.7,8.4,29.8,8.3,29.9,8.3L29.9,8.3z M29.9,8.8V9h-0.1c-0.1,0-0.1,0.1-0.1,0.1c0,0.1,0.1,0.1,0.1,0.1c0.1,0,0.1,0,0.1,0v0.2
				c-0.1,0-0.1,0-0.1,0c-0.3,0-0.4-0.1-0.4-0.3c0-0.2,0.1-0.3,0.3-0.3C29.8,8.8,29.9,8.8,29.9,8.8L29.9,8.8z M27.4,9.5V9.3l0,0
				c0.1,0,0.2-0.1,0.2-0.3c0-0.3-0.1-0.3-0.2-0.3l0,0V8.3l0,0c0.4,0,0.6,0.2,0.6,0.6C28,9.3,27.8,9.5,27.4,9.5L27.4,9.5L27.4,9.5z
				 M29.2,9.5h-0.3V8.8c0-0.1-0.1-0.2-0.2-0.2c-0.1,0-0.1,0-0.1,0.1c-0.1,0.1-0.1,0.1-0.1,0.1v0.7h-0.3V8.4h0.3v0.1l0,0
				c0.1-0.1,0.2-0.2,0.3-0.2c0.1,0,0.2,0.1,0.3,0.1c0.1,0,0.1,0.1,0.1,0.2V9.5z M27.4,8.3v0.3c-0.2,0-0.3,0.1-0.3,0.3
				c0,0.2,0.1,0.3,0.3,0.3v0.2c-0.4,0-0.6-0.2-0.6-0.5C26.8,8.5,27,8.3,27.4,8.3L27.4,8.3z M24.7,9.5V9.3c0.1,0,0.1,0,0.1-0.1
				c0.1,0,0.1-0.1,0.1-0.1V8.9c0,0-0.1,0-0.1,0L24.7,9V8.8c0.1,0,0.1,0,0.1,0c0.1,0,0.1,0,0.1-0.1c0,0,0,0,0-0.1
				c0-0.1-0.1-0.1-0.2-0.1l0,0V8.3l0,0c0.2,0,0.3,0.1,0.4,0.1c0.1,0,0.1,0.1,0.1,0.3v0.5c0,0.1,0,0.1,0,0.1c0.1,0,0.1,0.1,0.1,0
				c0,0.1,0,0.1,0,0.1c0,0-0.1,0-0.1,0c-0.1,0-0.2,0-0.2,0c-0.1,0-0.1-0.1-0.1-0.1l0,0l0,0C24.9,9.4,24.8,9.5,24.7,9.5L24.7,9.5z
				 M26.1,9.5c-0.1,0-0.1,0-0.2,0c-0.1,0-0.2,0-0.3-0.1c0,0-0.1-0.1-0.1-0.2V8.6h-0.1V8.4h0.1V8.1h0.3v0.3h0.2v0.2h-0.2v0.5
				c0,0.1,0,0.1,0.1,0.1c0,0,0,0,0.1,0h0.1V9.5L26.1,9.5z M26.6,8.3h-0.3V8h0.3V8.3L26.6,8.3z M26.6,9.5h-0.3V8.4h0.3V9.5z
				 M24.7,8.3v0.2c-0.1,0.1-0.2,0.1-0.2,0.2h-0.3c0-0.1,0.1-0.2,0.1-0.3C24.4,8.4,24.5,8.3,24.7,8.3L24.7,8.3z M24.7,8.8V9
				c-0.1,0-0.1,0-0.1,0c-0.1,0-0.1,0.1-0.1,0.1c0,0.1,0,0.1,0.1,0.1h0.1v0.2c-0.1,0-0.1,0-0.2,0c-0.3,0-0.4-0.1-0.4-0.3
				c0-0.2,0.1-0.3,0.4-0.3C24.6,8.8,24.6,8.8,24.7,8.8L24.7,8.8z M21.3,9.5V9.3l0,0c0.1,0,0.1,0,0.1-0.1c0.1,0,0.1-0.1,0.1-0.1h0.3
				c0,0.1-0.1,0.1-0.1,0.2C21.6,9.5,21.5,9.5,21.3,9.5L21.3,9.5L21.3,9.5z M21.3,9V8.8h0.2c0-0.1,0-0.1,0-0.1
				c-0.1-0.1-0.1-0.1-0.2-0.1l0,0V8.3c0.2,0,0.3,0.1,0.4,0.2c0.1,0.1,0.1,0.3,0.1,0.5H21.3L21.3,9z M22.8,8.7c-0.1,0-0.1,0-0.1,0
				c-0.1,0-0.2,0-0.2,0.1c-0.1,0.1-0.1,0.1-0.1,0.2v0.5H22V8.4h0.4v0.2l0,0c0.1-0.1,0.1-0.3,0.3-0.3c0.1,0,0.1,0,0.1,0.1V8.7
				L22.8,8.7z M24,9.5h-0.3V8.8c0-0.1-0.1-0.2-0.1-0.2c-0.1,0-0.1,0-0.1,0.1c-0.1,0.1-0.1,0.1-0.1,0.1v0.7h-0.3V8.4h0.3v0.1l0,0
				c0-0.1,0.1-0.2,0.3-0.2c0.1,0,0.2,0.1,0.3,0.1C24,8.5,24,8.6,24,8.7V9.5z M21.3,8.3v0.2c-0.1,0-0.2,0.1-0.3,0.3h0.3V9H21
				c0,0.2,0.1,0.3,0.3,0.3v0.2c-0.4,0-0.6-0.2-0.6-0.5c0-0.2,0.1-0.3,0.1-0.4C20.9,8.4,21.1,8.3,21.3,8.3L21.3,8.3L21.3,8.3z
				 M15.5,9.5V9.2c0.2,0,0.3-0.1,0.3-0.3c0-0.2-0.1-0.3-0.3-0.3V8.4c0.1,0,0.2,0.1,0.3,0.1l0,0V8h0.3v1.5h-0.3V9.4l0,0
				C15.7,9.4,15.7,9.5,15.5,9.5L15.5,9.5z M16.7,8.3h-0.3V8h0.3V8.3L16.7,8.3z M16.7,9.5h-0.3V8.4h0.3V9.5L16.7,9.5z M17.2,9.5h-0.3
				V8h0.3V9.5L17.2,9.5z M18.4,9.5h-0.3V8.1h0.3V9.5L18.4,9.5z M19.7,9.5h-0.3V8.8c0-0.1,0-0.2-0.1-0.2c-0.1,0-0.1,0-0.1,0.1
				C19,8.7,19,8.7,19,8.8v0.7h-0.3V8.4H19v0.1l0,0c0.1-0.1,0.1-0.2,0.3-0.2c0.1,0,0.2,0.1,0.3,0.1c0.1,0,0.1,0.1,0.1,0.2V9.5
				L19.7,9.5z M20.6,9.5c-0.1,0-0.2,0-0.3,0c-0.1,0-0.1,0-0.2-0.1C20,9.4,20,9.3,20,9.2V8.6h-0.2V8.4H20V8.1h0.3v0.3h0.2v0.2h-0.2
				v0.5c0,0.1,0,0.1,0,0.1h0.1c0.1,0,0.1,0,0.1,0V9.5z M15.5,8.4v0.2l0,0c-0.1,0-0.2,0.1-0.2,0.3c0,0.2,0.1,0.3,0.2,0.3l0,0v0.3
				h-0.1c-0.2,0-0.3-0.1-0.4-0.1C15,9.2,15,9.1,15,8.9c0-0.2,0-0.3,0.1-0.4C15.2,8.4,15.2,8.3,15.5,8.4C15.4,8.3,15.5,8.3,15.5,8.4
				L15.5,8.4z M14.2,9.5V9.3l0,0c0.1,0,0.3-0.1,0.3-0.3c0-0.3-0.1-0.3-0.3-0.3l0,0V8.3l0,0c0.4,0,0.6,0.2,0.6,0.6
				C14.8,9.3,14.6,9.5,14.2,9.5L14.2,9.5z M14.2,8.3v0.3c-0.1,0-0.2,0.1-0.2,0.3c0,0.2,0.1,0.3,0.2,0.3v0.2c-0.4,0-0.6-0.2-0.6-0.5
				C13.6,8.5,13.8,8.3,14.2,8.3L14.2,8.3z M11.4,9.5V9.3c0,0,0.1,0,0.1-0.1c0,0,0.1-0.1,0.1-0.1V8.9c0,0-0.1,0-0.1,0L11.4,9V8.8h0.1
				c0.1,0,0.1,0,0.1-0.1c0.1,0,0.1,0,0.1-0.1c0-0.1-0.1-0.1-0.2-0.1l0,0V8.3l0,0c0.2,0,0.3,0.1,0.4,0.1c0.1,0,0.1,0.1,0.1,0.3v0.5
				c0,0.1,0,0.1,0,0.1s0.1,0.1,0.1,0c0,0.1,0,0.1,0,0.1c0,0-0.1,0-0.1,0c-0.1,0-0.2,0-0.2,0c-0.1,0-0.1-0.1-0.1-0.1l0,0l0,0
				C11.5,9.4,11.5,9.5,11.4,9.5L11.4,9.5z M12.8,8.2L12.8,8.2C12.7,8.2,12.7,8.2,12.8,8.2c-0.1,0-0.1,0-0.1,0.1
				c-0.1,0-0.1,0-0.1,0.1v0.1h0.2v0.2h-0.2v0.9h-0.3V8.6h-0.1V8.4h0.1V8.3c0-0.2,0.1-0.3,0.3-0.3c0.1,0,0.1,0,0.2,0V8.2L12.8,8.2z
				 M13.6,8.2C13.5,8.2,13.5,8.2,13.6,8.2c-0.1,0-0.1,0-0.1,0c-0.1,0-0.1,0-0.1,0.1c-0.1,0-0.1,0-0.1,0.1v0.1h0.2v0.2h-0.2v0.9H13
				V8.6h-0.1V8.4H13V8.3C13,8.1,13.1,8,13.3,8c0.1,0,0.1,0,0.3,0V8.2z M10.7,8.7c0,0.2-0.1,0.4-0.1,0.5c-0.1,0.1-0.3,0.2-0.5,0.2H10
				V9.2c0.1,0,0.1-0.1,0.2-0.1c0.1-0.1,0.1-0.2,0.1-0.3c0-0.1,0-0.3-0.1-0.3c-0.1-0.1-0.1-0.1-0.2-0.1V8.1h0.1c0.2,0,0.3,0,0.5,0.1
				C10.6,8.3,10.7,8.5,10.7,8.7L10.7,8.7z M11.4,8.3v0.2c-0.1,0.1-0.2,0.1-0.2,0.2h-0.3c0-0.1,0.1-0.2,0.1-0.3
				C11.1,8.4,11.2,8.3,11.4,8.3L11.4,8.3z M11.4,8.8V9c-0.1,0-0.1,0-0.1,0c-0.1,0-0.1,0.1-0.1,0.1c0,0.1,0,0.1,0.1,0.1
				c0,0,0,0,0.1,0v0.2c-0.1,0-0.1,0-0.2,0c-0.3,0-0.4-0.1-0.4-0.3c0-0.2,0.1-0.3,0.4-0.3C11.3,8.8,11.3,8.8,11.4,8.8z M10,9.5H9.3
				V8.1H10v0.2H10H9.7v0.9H10H10V9.5z"/>
			<path class="st9" d="M17,28.2l1.6,0.7c0.5,0.3,1,0.5,1.2,0.8c0.3,0.3,0.5,0.7,0.6,1.1c0.1,0.3,0.1,0.7,0.1,1.1
				c-0.1,0.5-0.2,0.9-0.4,1.3c-0.3,0.7-0.6,1.1-0.9,1.4c-0.3,0.3-0.7,0.5-1.1,0.7c-0.3,0.1-0.7,0.1-1.1,0.1l0,0v-1.7
				c0.2-0.1,0.3-0.1,0.6-0.3c0.1-0.2,0.3-0.5,0.6-1c0.3-0.7,0.3-1.1,0.3-1.5c-0.1-0.3-0.4-0.6-0.9-0.8l-0.5-0.3L17,30.1V28.2z
				 M15.8,27.7l1.2,0.5v1.8l-1.5,3.2l0.5,0.2c0.4,0.2,0.7,0.3,1,0.3c0,0,0,0,0.1,0v1.7c-0.5-0.1-0.9-0.2-1.2-0.3L13,33.8L15.8,27.7z
				"/>
			<rect x="24.2" y="31.8" class="st9" width="2.1" height="6.7"/>
			<path class="st9" d="M33.1,28.4l1.9-0.9l1.7,3.6c0.2,0.4,0.3,0.7,0.3,1.1c0,0.3,0,0.7-0.1,1.1c-0.1,0.3-0.3,0.6-0.5,0.9
				c-0.3,0.3-0.8,0.5-1.2,0.8c-0.3,0.1-0.7,0.3-1,0.3c-0.4,0.1-0.8,0.2-1,0.2c-0.3,0-0.6-0.1-0.9-0.2c-0.3-0.1-0.6-0.3-0.8-0.5
				c-0.3-0.3-0.5-0.7-0.7-0.9L29,30.3l1.9-0.9l1.8,3.7c0.1,0.3,0.3,0.5,0.6,0.7c0.3,0.1,0.6,0.1,1-0.1c0.3-0.2,0.5-0.4,0.6-0.7
				c0.1-0.3,0.1-0.5-0.1-0.9L33.1,28.4z"/>
			<path class="st11" d="M25,43.2c1.2,0,2.3,1,2.3,2.3c0,1.3-1.1,2.3-2.3,2.3c-1.3,0-2.3-1-2.3-2.3C22.7,44.2,23.7,43.2,25,43.2z"/>
		</g>
	</g>
</g>
</svg>
